<?xml version="1.0" encoding="utf-8"?>
<!-- Generator: Adobe Illustrator 28.0.0, SVG Export Plug-In . SVG Version: 6.00 Build 0)  -->
<svg version="1.1" id="Layer_1" xmlns="http://www.w3.org/2000/svg" xmlns:xlink="http://www.w3.org/1999/xlink" x="0px" y="0px"
	 viewBox="0 0 1024 1024" style="enable-background:new 0 0 1024 1024;" xml:space="preserve">
<style type="text/css">
	.st0{fill:#EBF1F7;}
	.st1{fill:#FFFFFF;stroke:#13263D;stroke-width:8;stroke-linecap:round;stroke-linejoin:round;stroke-miterlimit:10;}
	.st2{fill:#0061FF;}
	.st3{fill:none;stroke:#13263D;stroke-width:8;stroke-linecap:round;stroke-linejoin:round;stroke-miterlimit:10;}
	.st4{fill:#0061FF;stroke:#13263D;stroke-width:8;stroke-linecap:round;stroke-linejoin:round;stroke-miterlimit:10;}
	.st5{fill:#FFFFFF;}
	.st6{fill:none;}
</style>
<circle class="st0" cx="512" cy="512" r="375"/>
<path class="st1" d="M778.1,806.9h202.4c1-5.7,1.5-11.5,1.5-17.4c0-56.7-30.3-100.8-87.9-111.7c-1.5-0.3-3,0-4.6,0.1
	c4.8-8-7.2-8.3-7.2-18.3c0-3.9-0.4-7.7-1.2-11.4c43.6-6.9,76.9-44.6,76.9-90.1c0-50.4-40.8-91.2-91.2-91.2c-8.3,0-16.4,1.1-24,3.2
	c4.2-7.2,6.7-15.6,6.7-24.5c0-16.4-8.2-30.9-20.7-39.6c0.5-2.8,0.7-5.7,0.7-8.7c0-29.8-24.1-53.9-53.9-53.9c-0.2,0-0.3,0-0.5,0
	c1-5,1.5-10.2,1.5-15.5c0-43.5-35.3-78.8-78.8-78.8c-10.8,0-21.1,2.2-30.4,6.1c-12.5-19.1-34.1-31.8-58.6-31.8
	c-13.1,0-25.3,3.6-35.7,9.8c-14.4-14.9-33-25.7-53.9-30.5c1.1-4.2,1.6-8.6,1.6-13.1c0-29.2-23.7-52.8-52.8-52.8
	c-24.1,0-44.4,16.1-50.8,38.1c-2-0.3-3.9-0.5-6-0.5c-13.6,0-25.6,7.2-32.3,18c-9.9-3.4-20.6-5.3-31.7-5.3
	c-16.2,0-31.4,3.9-44.8,10.9c-8.9-5.4-19.4-8.5-30.6-8.5c-32.8,0-59.5,26.6-59.5,59.5c0,14.6,5.3,27.9,14,38.3
	c-35.5,9.5-61.7,41.9-61.7,80.5c0,12.8,2.9,25,8.1,35.8c-10.2,9.3-17,22.1-18.8,36.4c-3.7-0.7-7.6-1.1-11.5-1.1
	c-32.3,0-58.4,26.1-58.4,58.4c0,18.2,8.3,34.4,21.3,45.1c-12.2,10.5-19.9,26-19.9,43.3c0,21.1,11.5,39.5,28.5,49.4
	c-0.6,3.2-0.9,6.5-0.9,9.9c0,2.2,0.1,4.4,0.4,6.6c-17.5,9.9-29.4,28.7-29.4,50.3c0,6.2,1,12.1,2.8,17.6c-28.4,13.6-48,42.6-48,76.2
	c0,3.8,0.3,7.6,0.8,11.2h167.4c0.5-3.7,0.8-7.4,0.8-11.2"/>
<g>
	<path class="st1" d="M271.2,806.9h-72.2c-13.4,0-24.3-10.9-24.3-24.3V686h120.8v96.5C295.6,796,284.7,806.9,271.2,806.9z"/>
	<path class="st1" d="M805.5,806.9h-72.2c-13.4,0-24.3-10.9-24.3-24.3V686h120.8v96.5C829.8,796,818.9,806.9,805.5,806.9z"/>
	<g>
		<g>
			<g>
				<path class="st2" d="M222.7,453.4c0,0-43.5,0-67.7,0c-24.2,0-32.5-27-11.1-40.8c21.4-13.8,49.1-14.5,59.4-9.7
					c10.4,4.8,12.4,23.9,12.4,23.9h20.7L222.7,453.4z"/>
				<path class="st3" d="M222.7,453.4c0,0-43.5,0-67.7,0c-24.2,0-32.5-27-11.1-40.8c21.4-13.8,49.1-14.5,59.4-9.7
					c10.4,4.8,12.4,23.9,12.4,23.9h20.7L222.7,453.4z"/>
			</g>
			<g>
				<path class="st2" d="M779.7,453.4c0,0,43.5,0,67.7,0c24.2,0,32.5-27,11.1-40.8c-21.4-13.8-49.1-14.5-59.4-9.7
					c-10.4,4.8-12.4,23.9-12.4,23.9h-20.7L779.7,453.4z"/>
				<path class="st3" d="M779.7,453.4c0,0,43.5,0,67.7,0c24.2,0,32.5-27,11.1-40.8c-21.4-13.8-49.1-14.5-59.4-9.7
					c-10.4,4.8-12.4,23.9-12.4,23.9h-20.7L779.7,453.4z"/>
			</g>
		</g>
	</g>
	<path class="st4" d="M816.4,478.3c-22.8-14.5-35.3-24.9-35.3-24.9S759,383.6,748,353.9c-11.1-29.7-35.3-47-72.6-52.5
		c-37.3-5.5-122.9-6.2-174.2-6.2c-51.3,0-136.9,0.7-174.2,6.2c-37.3,5.5-61.5,22.8-72.6,52.5c-11.1,29.7-33.2,99.5-33.2,99.5
		s-12.4,10.4-35.3,24.9c-22.8,14.5-40.1,21.4-40.1,80.9v161.4c0,14.3,11.6,25.9,25.9,25.9h154.5l22.8-13.8h152.1h152.1l22.8,13.8
		h154.5c14.3,0,25.9-11.6,25.9-25.9v-119v-42.4C856.5,499.7,839.2,492.8,816.4,478.3z"/>
	<path class="st1" d="M725.4,362.3c-4.9-13.2-15.8-31.5-53.5-37.1c-18.4-2.7-62.9-6-170.6-6c-107.8,0-152.3,3.2-170.6,6
		c-37.7,5.6-48.6,23.8-53.5,37.1l-12.7,37.9c-5.1,16.6-10.2,35.3-14,53.2h501.8C744.8,419.1,732.6,381.7,725.4,362.3z"/>
	<g>
		<g>
			<g>
				<path class="st5" d="M173,522.8v32.5c0,7.9,5.9,14.2,13.2,14.2h127.5c5.7,0,9.5-6.4,7.2-12c-5.4-12.7-15.5-31.6-29.6-36.7
					c-8.9-3.2-74.4-9.5-103.9-12.2C179.7,507.9,173,514.5,173,522.8z"/>
				<path class="st3" d="M173,522.8v32.5c0,7.9,5.9,14.2,13.2,14.2h127.5c5.7,0,9.5-6.4,7.2-12c-5.4-12.7-15.5-31.6-29.6-36.7
					c-8.9-3.2-74.4-9.5-103.9-12.2C179.7,507.9,173,514.5,173,522.8z"/>
			</g>
			<g>
				<path class="st5" d="M827.7,522.8v32.5c0,7.9-5.9,14.2-13.2,14.2H687c-5.7,0-9.5-6.4-7.2-12c5.4-12.7,15.5-31.6,29.6-36.7
					c8.9-3.2,74.4-9.5,103.9-12.2C821.1,507.9,827.7,514.5,827.7,522.8z"/>
				<path class="st3" d="M827.7,522.8v32.5c0,7.9-5.9,14.2-13.2,14.2H687c-5.7,0-9.5-6.4-7.2-12c5.4-12.7,15.5-31.6,29.6-36.7
					c8.9-3.2,74.4-9.5,103.9-12.2C821.1,507.9,827.7,514.5,827.7,522.8z"/>
			</g>
		</g>
	</g>
	<path class="st1" d="M664.9,669.4l-11.9-59.7c-1.9-9.5-8.1-16-15.1-16H501.2H364.6c-7,0-13.2,6.5-15.1,16l-11.9,59.7
		c-2.8,14,4.7,27.8,15.1,27.8h148.6h148.6C660.1,697.2,667.7,683.3,664.9,669.4z"/>
	<g>
		<g>
			<g>
				<path class="st3" d="M228.2,470c11.9,2.9,23.2,7.3,34.1,12.3c10.9,5.1,21.2,11,30.9,17.7c4.9,3.3,9.6,6.8,14.2,10.5l1.7,1.4
					l1.7,1.4c1.1,1,2.3,1.9,3.3,2.8c2.2,2,4.4,3.9,6.5,5.9c2.1,2,4.1,4.1,6.2,6.1c1,1,2,2.1,3,3.2l1.5,1.6l0.9,0.9l1,1
					c5.2,5.2,11.5,9.5,18.5,12.3c3.5,1.4,7.1,2.5,10.8,3.2c1.9,0.4,3.7,0.6,5.6,0.8c0.9,0.1,1.9,0.1,2.9,0.2l2.4,0.1l18.3,0.6
					c12.2,0.4,24.4,0.7,36.5,0.9c24.4,0.5,48.7,0.7,73.1,0.7c24.4,0,48.7-0.2,73.1-0.7c12.2-0.2,24.4-0.6,36.5-1
					c6.1-0.2,12.2-0.4,18.3-0.6l2.4-0.1c1-0.1,1.9-0.1,2.9-0.2c1.9-0.2,3.8-0.4,5.6-0.8c3.7-0.7,7.4-1.8,10.8-3.2
					c7-2.8,13.3-7.1,18.5-12.3l1-1l0.9-0.9l1.5-1.6c1-1.1,2-2.1,3-3.2c2.1-2,4.1-4.2,6.2-6.1c2.1-2,4.3-4,6.5-5.9
					c1.1-1,2.2-1.9,3.3-2.8l1.7-1.4l1.7-1.4c4.5-3.7,9.3-7.2,14.2-10.5c9.7-6.7,20.1-12.6,30.9-17.7c10.9-5,22.2-9.4,34.1-12.2"/>
			</g>
		</g>
	</g>
	<g>
		<line class="st3" x1="204.2" y1="748.3" x2="204.2" y2="778.2"/>
		<line class="st3" x1="235.1" y1="748.3" x2="235.1" y2="778.2"/>
		<line class="st3" x1="266.1" y1="748.3" x2="266.1" y2="778.2"/>
	</g>
	<g>
		<line class="st3" x1="738.5" y1="748.3" x2="738.5" y2="778.2"/>
		<line class="st3" x1="769.4" y1="748.3" x2="769.4" y2="778.2"/>
		<line class="st3" x1="800.3" y1="748.3" x2="800.3" y2="778.2"/>
	</g>
	<line class="st3" x1="382.4" y1="630.2" x2="613.7" y2="630.2"/>
	<line class="st3" x1="379" y1="662" x2="617.1" y2="662"/>
	<line class="st3" x1="600" y1="806.9" x2="1003.9" y2="806.9"/>
	<line class="st3" x1="391.5" y1="806.9" x2="553.7" y2="806.9"/>
	<line class="st3" x1="20.1" y1="806.9" x2="354.3" y2="806.9"/>
	<line class="st3" x1="354.3" y1="348.4" x2="302.3" y2="400.4"/>
	<line class="st3" x1="399.3" y1="348.4" x2="315.4" y2="432.4"/>
	<g>
		<circle class="st3" cx="212.2" cy="540.5" r="13.2"/>
		<circle class="st3" cx="257.8" cy="542.9" r="10.9"/>
	</g>
	<g>
		<circle class="st3" cx="791.1" cy="540.5" r="13.2"/>
		<circle class="st3" cx="745.5" cy="542.9" r="10.9"/>
	</g>
</g>
<path class="st6" d="M813.7,710.5c-21.9-6.6-37.8-26.9-37.8-50.9c0-17.4,8.4-32.9,21.3-42.6c-13.5-15.9-21.6-36.4-21.6-58.9
	c0-7.4,0.9-14.6,2.5-21.5c-4.7,1-9.5,1.6-14.4,1.6c-36.3,0-65.8-29.5-65.8-65.8c0-22.3,11.1-42.1,28.1-54
	c-2.1-4.9-3.5-10.1-4.1-15.6c-7.6,2.4-15.7,3.8-24.1,3.8c-31.6,0-58.9-18.7-71.4-45.6c-5.6,1.5-11.5,2.2-17.6,2.2
	c-6.3,0-12.4-0.9-18.2-2.4c-18.5,34-54.4,57-95.8,57c-39.2,0-73.5-20.7-92.7-51.7c-15.6,10.6-34.5,16.7-54.7,16.7
	c-5.8,0-11.5-0.5-17.1-1.5c-5.2,31.8-28.5,57.5-59,66.4c-0.4,32.2-26.6,58.1-58.8,58.1c-4.1,0-8.2-0.4-12-1.2
	c-1.9,15.1-9.6,28.5-20.8,37.7c12.2,10.5,19.9,26,19.9,43.3c0,3.2-0.3,6.4-0.8,9.5c17.2,9.9,28.9,28.4,28.9,49.7
	c0,21.2-11.5,39.6-28.5,49.5c0.3,2.4,0.5,4.8,0.5,7.3c0,14.1-5.1,27.1-13.5,37.1c13.6,15,21.9,34.9,21.9,56.7
	c0,3.8-0.3,7.6-0.8,11.2h571c-1-5.7-1.5-11.5-1.5-17.4C776.6,757.7,791,729.3,813.7,710.5z"/>
<circle class="st3" cx="587.2" cy="170.5" r="22.2"/>
<circle class="st3" cx="679" cy="192.5" r="10.4"/>
<circle class="st3" cx="830.3" cy="305.6" r="16.6"/>
<circle class="st3" cx="154" cy="260.6" r="14.9"/>
<circle class="st3" cx="351.2" cy="130.9" r="11.8"/>
<circle class="st3" cx="49.7" cy="633.5" r="17"/>
<circle class="st3" cx="980.8" cy="652.5" r="23.1"/>
<path class="st3" d="M226.4,287.4c0,0,19.3-4.1,36.3,2.7"/>
<path class="st3" d="M302.5,198.1c0,0,17.2,6.5,31.3,32.4"/>
<path class="st3" d="M555.8,252.9c0,0,1.7-6.3,17.3-19.7"/>
<path class="st3" d="M667.4,255.2c0,0,5.1,6.3,9.4,22.6"/>
<path class="st3" d="M467.7,157.9c0,0,23.6-5.1,29,24.2"/>
<path class="st3" d="M727.6,281.1c0,0,24.9,7.9,26.5,43.9"/>
<path class="st3" d="M257.8,214.3c0,0,32.4-12.6,54.4,26.2"/>
</svg>
