<?xml version="1.0" encoding="utf-8"?>
<!-- Generator: Adobe Illustrator 28.0.0, SVG Export Plug-In . SVG Version: 6.00 Build 0)  -->
<svg version="1.1" id="Layer_1" xmlns="http://www.w3.org/2000/svg" xmlns:xlink="http://www.w3.org/1999/xlink" x="0px" y="0px"
	 viewBox="0 0 1024 1024" style="enable-background:new 0 0 1024 1024;" xml:space="preserve">
<style type="text/css">
	.st0{fill:#EBF1F7;}
	.st1{fill:none;stroke:#13263D;stroke-width:8;stroke-linecap:round;stroke-linejoin:round;stroke-miterlimit:10;}
	.st2{fill:#FFFFFF;stroke:#13263D;stroke-width:8;stroke-linecap:round;stroke-linejoin:round;stroke-miterlimit:10;}
	.st3{fill:#FFFFFF;}
	.st4{fill:#0061FF;}
	.st5{fill:#0061FF;stroke:#13263D;stroke-width:8;stroke-linecap:round;stroke-linejoin:round;stroke-miterlimit:10;}
</style>
<circle class="st0" cx="512" cy="512" r="375"/>
<path class="st1" d="M365.1,658c-27.4-24.6-47.9-56.7-58.2-93.1"/>
<path class="st1" d="M413.8,690.2c-8.1-3.8-15.9-8.1-23.3-12.9"/>
<path class="st2" d="M156.9,272.6c-0.5-5.5,2.7-10.6,7.8-12.7c28.3-11.5,121.4-46.5,200.1-43.9c94,3.1,163.2,43.4,210.7,43.4
	c21.3,0,63.1,0.8,102.6,1.8c57.5,1.3,109.4,34.5,134.8,86.1l80.6,163.7c4.2,8.6-2.3,18.5-11.9,18.1c-56.7-2.8-217.2-11.3-363-23.8
	c-180.8-15.5-344.8-33.8-352.2-120.9L156.9,272.6z"/>
<circle class="st1" cx="446.6" cy="364.3" r="108.8"/>
<circle class="st1" cx="685.3" cy="399.1" r="95.5"/>
<circle class="st1" cx="685.3" cy="399.1" r="51.3"/>
<circle class="st1" cx="446.6" cy="364.3" r="60.8"/>
<path class="st1" d="M264.2,228c0,0,0,44.3,0,108.8s2.4,120.3,79.6,148.7"/>
<path class="st1" d="M469.1,364.3c0,12.5-10.1,22.5-22.5,22.5c-12.5,0-22.5-10.1-22.5-22.5s10.1-22.5,22.5-22.5"/>
<path class="st1" d="M704.1,399.1c0,10.4-8.4,18.8-18.8,18.8c-10.4,0-18.8-8.4-18.8-18.8s8.4-18.8,18.8-18.8"/>
<g>
	<g>
		<g>
			<circle class="st3" cx="491.9" cy="514.2" r="150.7"/>
			<circle class="st1" cx="491.9" cy="514.2" r="150.7"/>
		</g>
		<g>
			<circle class="st3" cx="491.9" cy="514.2" r="115.8"/>
			<circle class="st1" cx="491.9" cy="514.2" r="115.8"/>
		</g>
		<g>
			<path class="st3" d="M437.8,491.5V530h-91.3c-10.6,0-19.3-8.6-19.3-19.3v0c0-10.6,8.6-19.3,19.3-19.3H437.8z"/>
			<path class="st1" d="M437.8,491.5V530h-91.3c-10.6,0-19.3-8.6-19.3-19.3v0c0-10.6,8.6-19.3,19.3-19.3H437.8z"/>
		</g>
		<g>
			<path class="st3" d="M361.1,485.1v51.2h-84.9c-14.1,0-25.6-11.5-25.6-25.6v0c0-14.1,11.5-25.6,25.6-25.6H361.1z"/>
			<path class="st1" d="M361.1,485.1v51.2h-84.9c-14.1,0-25.6-11.5-25.6-25.6v0c0-14.1,11.5-25.6,25.6-25.6H361.1z"/>
		</g>
		<g>
			<circle class="st4" cx="491.9" cy="514.2" r="90.2"/>
			<circle class="st1" cx="491.9" cy="514.2" r="90.2"/>
		</g>
		<g>
			<path class="st4" d="M491.9,865.3c15.3,0,27.7-12.4,27.7-27.7V633.1c0-8.9-7.2-16.1-16.1-16.1h-23.1c-8.9,0-16.1,7.2-16.1,16.1
				v165v39.4C464.2,852.9,476.6,865.3,491.9,865.3z"/>
			<path class="st1" d="M491.9,865.3c15.3,0,27.7-12.4,27.7-27.7V633.1c0-8.9-7.2-16.1-16.1-16.1h-23.1c-8.9,0-16.1,7.2-16.1,16.1
				v165v39.4C464.2,852.9,476.6,865.3,491.9,865.3z"/>
		</g>
		<g>
			<path class="st4" d="M541.8,542.7V712c0,16.1-13,29.1-29.1,29.1h-41.6c-16.1,0-29.1-13-29.1-29.1V542.7
				c0-27.5,22.3-49.9,49.9-49.9h0C519.5,492.8,541.8,515.1,541.8,542.7z"/>
			<path class="st1" d="M541.8,542.7V712c0,16.1-13,29.1-29.1,29.1h-41.6c-16.1,0-29.1-13-29.1-29.1V542.7
				c0-27.5,22.3-49.9,49.9-49.9h0C519.5,492.8,541.8,515.1,541.8,542.7z"/>
		</g>
		<path class="st5" d="M491.9,866.3c0,0,0-11.3,0,54.4"/>
	</g>
</g>
<path class="st2" d="M264.2,366.4L264.2,366.4c0-31.6-25.6-57.2-57.2-57.2v0c31.6,0,57.2-25.6,57.2-57.2h0
	c0,31.6,25.6,57.2,57.2,57.2v0C289.9,309.2,264.2,334.8,264.2,366.4z"/>
<path class="st2" d="M706.4,637.2L706.4,637.2c0-22-17.8-39.9-39.9-39.9v0c22,0,39.9-17.8,39.9-39.9h0c0,22,17.8,39.9,39.9,39.9v0
	C724.3,597.4,706.4,615.2,706.4,637.2z"/>
<path class="st2" d="M562,235.6L562,235.6c0-22-17.8-39.9-39.9-39.9v0c22,0,39.9-17.8,39.9-39.9h0c0,22,17.8,39.9,39.9,39.9v0
	C579.8,195.7,562,213.6,562,235.6z"/>
<path class="st1" d="M901.2,441.4c7.9,15.9,12.7,25.4,12.7,25.4"/>
<path class="st1" d="M774,248.6c0,0,46.9,26.8,69.9,75.1c15.1,31.8,29.9,62.1,41.9,86.6"/>
<line class="st1" x1="419.9" y1="920.7" x2="564" y2="920.7"/>
<line class="st1" x1="620.2" y1="920.7" x2="666.9" y2="920.7"/>
<line class="st1" x1="322.1" y1="920.7" x2="368.8" y2="920.7"/>
</svg>
