<?xml version="1.0" encoding="utf-8"?>
<!-- Generator: Adobe Illustrator 28.0.0, SVG Export Plug-In . SVG Version: 6.00 Build 0)  -->
<svg version="1.1" id="Layer_1" xmlns="http://www.w3.org/2000/svg" xmlns:xlink="http://www.w3.org/1999/xlink" x="0px" y="0px"
	 viewBox="0 0 1024 1024" style="enable-background:new 0 0 1024 1024;" xml:space="preserve">
<style type="text/css">
	.st0{fill:#EBF1F7;}
	.st1{fill:none;stroke:#13263D;stroke-width:8;stroke-linecap:round;stroke-linejoin:round;stroke-miterlimit:10;}
	.st2{fill:#FFFFFF;stroke:#13263D;stroke-width:8;stroke-linecap:round;stroke-linejoin:round;stroke-miterlimit:10;}
	.st3{fill:#0061FF;stroke:#13263D;stroke-width:8;stroke-linecap:round;stroke-linejoin:round;stroke-miterlimit:10;}
	.st4{fill:#0061FF;}
</style>
<circle class="st0" cx="512" cy="512" r="375"/>
<path class="st1" d="M491.4,205.8c50.9-1,130.7-1.6,223.3,1.8"/>
<path class="st1" d="M432.5,207.6c0,0,10.5-0.5,29.5-1.1"/>
<path class="st2" d="M987,363.2l-0.2,0.7v0l-23,70.1l-1.1,3.2l-72.3,220.1l-8.5,25.9l-24.8,75.7H239.8c-41.3,0-78.6-24.5-95-62.3
	l-18.5-43.1l-88-204.4c11.8-7.7,103.1-67.4,187.1-116.7l31.4-18.1c44-24.9,82.6-44.5,101.7-48.5c61-12.9,352-10.6,421.3-8.2
	c52.2,1.8,140.6,50.2,183.1,82c13.1,9.8,21.9,18.1,23.9,22.9C986.8,362.6,986.9,362.9,987,363.2z"/>
<g>
	<path class="st2" d="M851.8,326.8c-29.8-22-36.4-24.8-101.8-31.4c-27-2.7-287.2,0.1-324.5,7c-93.7,17.2-176.2,80.7-218.3,105.8
		c-1.9,1.1-3.7,2.3-5.5,3.4l22.5,36.1c61.3-2.3,178.9-6.8,296.1-11.7c25.2-1,50.3-2.1,74.9-3.1c129.7-5.6,243-11,257.2-13.4
		c34.1-5.9,33.6-9.3,45-48C899.8,363.2,902.8,364.5,851.8,326.8z"/>
</g>
<rect x="163.2" y="455.4" transform="matrix(0.8011 -0.5986 0.5986 0.8011 -243.6035 210.3629)" class="st3" width="63" height="32.6"/>
<path class="st2" d="M38.3,449.1l106.5,247.5c16.4,37.9,53.7,62.3,95,62.3h184"/>
<ellipse transform="matrix(0.9986 -5.199062e-02 5.199062e-02 0.9986 -25.0173 24.2834)" class="st2" cx="454.2" cy="493" rx="38" ry="17.2"/>
<path class="st2" d="M447.6,488.9H459c5.4,0,9.8,4.4,9.8,9.8v6.2"/>
<path class="st2" d="M684.5,758.9H239.8c-41.3,0-78.6-24.5-95-62.3l-18.5-43.1l18.2-21.1c0,0,27.9,69.3,65.1,87.4
	c37.2,18.1,451.7,10.1,451.7,10.1L684.5,758.9z"/>
<path class="st3" d="M214.5,518.1l-44.3-64.8c-8.2-12-22.4-18.3-36.8-16.4L37,449.9l104.5,239.2l74.7-130.3
	C223.4,546.1,222.8,530.3,214.5,518.1z"/>
<polyline class="st1" points="556,299.4 530.5,434.7 595.2,434.7 616.7,297.4 "/>
<path class="st3" d="M271.7,522.2L271.7,522.2c-5.7,3.9-13.4,2.4-17.3-3.3l-78.7-115.4c-3.9-5.7-2.4-13.4,3.3-17.3h0
	c5.7-3.9,13.4-2.4,17.3,3.3l78.7,115.4C278.8,510.6,277.3,518.3,271.7,522.2z"/>
<g>
	<g>
		<g>
			<path class="st4" d="M580.5,434.7h-28.3c-16.4,0-31.9,7.3-42.3,20c-14.9,18.2-34.6,49.8-45.8,98.3c-19.7,85.4,9.2,123,22.7,124.8
				c13.4,1.7,62.7,15.7,62.7,15.7L598,511.5l10.7-40.1C613.6,452.9,599.7,434.7,580.5,434.7z"/>
			<path class="st1" d="M580.5,434.7h-28.3c-16.4,0-31.9,7.3-42.3,20c-14.9,18.2-34.6,49.8-45.8,98.3c-19.7,85.4,9.2,123,22.7,124.8
				c13.4,1.7,62.7,15.7,62.7,15.7L598,511.5l10.7-40.1C613.6,452.9,599.7,434.7,580.5,434.7z"/>
		</g>
		<g>
			<path class="st4" d="M239.4,712.9v-39c0-27.7,24.3-49.1,51.8-45.6l229.6,29.2c16.6,2.1,29.1,16.2,29.1,33v35.2
				c0,18.4-14.9,33.3-33.3,33.3H285.4C260,758.9,239.4,738.3,239.4,712.9z"/>
			<path class="st1" d="M239.4,712.9v-39c0-27.7,24.3-49.1,51.8-45.6l229.6,29.2c16.6,2.1,29.1,16.2,29.1,33v35.2
				c0,18.4-14.9,33.3-33.3,33.3H285.4C260,758.9,239.4,738.3,239.4,712.9z"/>
		</g>
		<g>
			<path class="st4" d="M586.6,434.7c-14.9,0-46.4-1.4-40-35.5c7.5-39.9,24.4-59.8,46.9-59.8s23,10.6,23,30.5
				C616.5,389.9,620.9,434.7,586.6,434.7z"/>
			<path class="st1" d="M586.6,434.7c-14.9,0-46.4-1.4-40-35.5c7.5-39.9,24.4-59.8,46.9-59.8s23,10.6,23,30.5
				C616.5,389.9,620.9,434.7,586.6,434.7z"/>
		</g>
		<circle class="st2" cx="495.6" cy="707.7" r="34.9"/>
	</g>
</g>
<g>
	<g>
		<path class="st3" d="M962.7,437.3l-72.2,220.1l-8.5,25.8c-10.3-2.6-20-4.9-24.8-5.5c-6.3-0.8-16.1-9.5-22.6-27.5
			c-7.4-20.2-10.6-52-0.1-97.3c11.2-48.5,30.9-80,45.8-98.3c10.4-12.7,25.9-20,42.3-20h28.3C955.1,434.7,959.1,435.6,962.7,437.3z"
			/>
		<path class="st3" d="M890.4,657.4l-8.5,25.8l-24.8,75.7H655.7c-25.4,0-46-20.6-46-46v-39c0-27.7,24.3-49.1,51.8-45.6l173.1,22
			L890.4,657.4z"/>
		<path class="st3" d="M986.8,363.9L986.8,363.9l-23,70.2c-2.1,0.5-4.3,0.7-6.8,0.7c-14.9,0-46.4-1.4-40-35.5
			c7.4-39.3,24-59.2,45.9-59.7c13.1,9.8,21.9,18.1,23.9,22.8C986.8,362.8,986.8,363.4,986.8,363.9z"/>
	</g>
</g>
<path class="st2" d="M244.8,362.7L244.8,362.7c0-25.6-20.7-46.3-46.3-46.3v0c25.6,0,46.3-20.7,46.3-46.3h0
	c0,25.6,20.7,46.3,46.3,46.3v0C265.5,316.3,244.8,337.1,244.8,362.7z"/>
<path class="st2" d="M363.3,809L363.3,809c0-27.7-22.4-50.1-50.1-50.1v0c27.7,0,50.1-22.4,50.1-50.1h0c0,27.7,22.4,50.1,50.1,50.1v0
	C385.7,758.9,363.3,781.3,363.3,809z"/>
<path class="st2" d="M687.9,589.9L687.9,589.9c0-21.9-17.8-39.7-39.7-39.7v0c21.9,0,39.7-17.8,39.7-39.7h0
	c0,21.9,17.8,39.7,39.7,39.7v0C705.7,550.2,687.9,568,687.9,589.9z"/>
<line class="st1" x1="800.7" y1="332.7" x2="743.7" y2="389.8"/>
<line class="st1" x1="810" y1="368.7" x2="786.1" y2="392.6"/>
<line class="st1" x1="251.8" y1="758.9" x2="137" y2="758.9"/>
<line class="st1" x1="87.7" y1="758.9" x2="69.1" y2="758.9"/>
<line class="st1" x1="857.1" y1="758.9" x2="916.1" y2="758.9"/>
<line class="st1" x1="952.3" y1="758.9" x2="981.8" y2="758.9"/>
<line class="st1" x1="456.7" y1="809" x2="624.6" y2="809"/>
<line class="st1" x1="660.1" y1="809" x2="705.7" y2="809"/>
<g>
	
		<ellipse transform="matrix(0.9986 -5.199062e-02 5.199062e-02 0.9986 -24.2147 41.1082)" class="st2" cx="778" cy="486" rx="38" ry="17.2"/>
	<path class="st2" d="M771.4,481.9h11.4c5.4,0,9.8,4.4,9.8,9.8v6.2"/>
</g>
</svg>
