<svg xmlns="http://www.w3.org/2000/svg" width="161" height="73" version="1.0" viewBox="0 0 120.75 54.75"><defs><clipPath id="a"><path d="M5.977.602h26.152V13.16H5.977ZM19.609 13.16h12.52v29.281h-12.52ZM.15 35.172h12.519v7.27H.148Zm0 7.27h31.98v11.324H.149Zm0 0"/></clipPath><clipPath id="b"><path d="M34.926.828h6.566V16.5h-6.566Zm0 0"/></clipPath><clipPath id="c"><path d="M40.297 15.875c-.734.55-1.66.574-2.52.574H34.98v-2.976h1.133c.02 0 .36 0 .547-.067.442-.133.61-.465.61-1.258V.883h4.164v11.441c0 1.254 0 2.735-1.137 3.547"/></clipPath><clipPath id="d"><path d="M41.703.828h11.86V16.5h-11.86Zm0 0"/></clipPath><clipPath id="e"><path d="m47.652 3.922-.906 6.242h1.79Zm1.723 12.523-.46-3.504H46.37l-.504 3.508h-4.16L45.152.883h5l3.364 15.566Zm0 0"/></clipPath><clipPath id="f"><path d="M53.918.828h10.941V16.5H53.918Zm0 0"/></clipPath><clipPath id="g"><path d="m60.707 16.45-1.262-5.384-1.324 5.383h-4.14l2.562-8.137L53.98.883h4.227l1.238 5.333L60.707.883h4.14l-2.46 7.43 2.46 8.136Zm0 0"/></clipPath><clipPath id="h"><path d="M35.438 19.41h14.32v15.621h-14.32Zm0 0"/></clipPath><clipPath id="i"><path d="M46.223 35.004V24.336l-2.29 10.668h-2.667L38.953 24.53v10.473h-3.492V19.438h5.277l1.89 10.277 1.852-10.277h5.23v15.566Zm0 0"/></clipPath><clipPath id="j"><path d="M50.629 19.195h10.629V35.25h-10.63Zm0 0"/></clipPath><clipPath id="k"><path d="M57.027 23.32c0-.508-.02-1.144-1.113-1.144-1.05 0-1.074.707-1.074 1.168v7.738c0 .441 0 1.168 1.094 1.168 1.113 0 1.09-.727 1.09-1.191ZM60.2 33.86c-1.07 1.081-2.691 1.367-4.12 1.367-2.712 0-4.286-.86-4.919-2.028-.504-.926-.527-1.96-.527-2.976v-5.868c0-1.632.023-3.109 1.43-4.144.714-.531 1.87-.992 3.847-.992.192 0 3.89-.133 4.938 2.246.398.883.379 1.851.379 2.8v5.958c0 1.343-.02 2.644-1.028 3.636"/></clipPath><clipPath id="l"><path d="M62.125 19.41h10.488v15.621H62.125Zm0 0"/></clipPath><clipPath id="m"><path d="M68.398 29.781c0-.906-.273-1.191-1.152-1.191h-.969v3.437h.926c.902 0 1.195-.218 1.195-1.187Zm-.105-6.285c0-.86-.313-1.055-1.09-1.055h-.926v3.215h.926c.797 0 1.09-.285 1.09-1.164Zm3.215 10.606c-.985.882-2.352.902-3.59.902h-5.742V19.438h6.37c.356 0 2.06.109 3.028 1.277.797.973.754 2.183.754 2.582 0 1.187-.21 1.828-.523 2.293-.633.926-1.766 1.21-2.02 1.277.465.086.926.176 1.348.399 1.3.66 1.469 2.007 1.469 3.37 0 1.278-.106 2.56-1.094 3.462"/></clipPath><clipPath id="n"><path d="M73.172 19.438h4.203v15.566h-4.203Zm0 0"/></clipPath><clipPath id="o"><path d="M78.469 19.438h4.14V32.05h-4.14Zm0 12.613h7.988v2.953h-7.988Zm0 0"/></clipPath><clipPath id="p"><path d="M87.61 19.438h8.113v3.023h-8.114Zm0 3.023h4.183v3.152h-4.184Zm0 3.152h7.82v2.977h-7.82Zm0 2.977h4.183v3.418h-4.184Zm0 3.418h8.113v2.996h-8.114Zm0 0"/></clipPath><clipPath id="q"><path d="M35.422 38h10.523v15.61H35.422Zm0 0"/></clipPath><clipPath id="r"><path d="M41.746 42.363c0-1.011-.168-1.363-1.133-1.363h-.968v9.656h.968c.965 0 1.133-.379 1.133-1.281Zm4.164 7.078c-.105 1.72-.547 2.493-1.137 3.067-1.113 1.101-2.605 1.054-4.035 1.054h-5.297V38H41.2c.336 0 2.043.043 3.258.86 1.41.945 1.473 2.425 1.473 3.968v5.379c0 .418 0 .836-.02 1.234"/></clipPath><clipPath id="s"><path d="M46.836 37.996h8.11v3.024h-8.11Zm0 3.024h4.18v3.152h-4.18Zm0 3.152h7.816v2.976h-7.816Zm0 2.976h4.18v3.418h-4.18Zm0 3.418h8.11v2.996h-8.11Zm0 0"/></clipPath><clipPath id="t"><path d="M55.707 38h10.488v2.973H55.707Zm3.152 2.973h4.18v12.59h-4.18Zm0 0"/></clipPath><clipPath id="u"><path d="M64.887 38h11.906v15.61H64.887Zm0 0"/></clipPath><clipPath id="v"><path d="m70.879 41.043-.902 6.238h1.785Zm1.726 12.523-.464-3.504h-2.543l-.504 3.504h-4.16L68.379 38h5l3.363 15.566Zm0 0"/></clipPath><clipPath id="w"><path d="M77.523 38h4.204v15.563h-4.204Zm0 0"/></clipPath><clipPath id="x"><path d="M82.82 37.996h4.137V50.61H82.82Zm0 12.613h7.985v2.953H82.82Zm0 0"/></clipPath><clipPath id="y"><path d="M91.984 38h4.204v15.563h-4.204Zm0 0"/></clipPath><clipPath id="z"><path d="M97.258 37.934h10.305v15.675H97.258Zm0 0"/></clipPath><clipPath id="A"><path d="m103.629 53.563-2.86-9.126v9.126h-3.488V37.996h3.848l2.96 9.328-.019-9.328h3.489v15.566Zm0 0"/></clipPath><clipPath id="B"><path d="M108.434 37.715h10.668v16.113h-10.668Zm0 0"/></clipPath><clipPath id="C"><path d="M115.082 53.563v-1.696c-.691 1.367-1.512 1.942-3.004 1.942-1.008 0-1.66-.266-2.016-.465-.167-.11-.464-.285-.757-.684a3.4 3.4 0 0 1-.672-1.39c-.106-.485-.149-.946-.149-1.938v-6.75c0-1.41.063-2.645 1.157-3.637 1.136-1.035 2.75-1.21 4.203-1.21 2.183 0 3.406.484 4.16 1.19.465.419.715.927.8 1.126.212.504.294.992.294 2.047v1.28h-4.016v-1.413c0-.613-.105-1.125-1.238-1.125-1.051 0-1.137.55-1.137 1.082v7.96c0 .442.02 1.255 1.137 1.255.863 0 1.238-.328 1.238-1.188v-1.765h-1.281v-2.758h5.297v8.136Zm0 0"/></clipPath></defs><g clip-path="url(#a)"><path fill="#0061ff" d="M.148.602h31.98v53.21H.149Zm0 0"/></g><g clip-path="url(#b)"><g clip-path="url(#c)"><path fill="#14142b" d="M33.727-.371h32.402v18.07H33.727Zm0 0"/></g></g><g clip-path="url(#d)"><g clip-path="url(#e)"><path fill="#14142b" d="M33.727-.371h32.402v18.07H33.727Zm0 0"/></g></g><g clip-path="url(#f)"><g clip-path="url(#g)"><path fill="#14142b" d="M33.727-.371h32.402v18.07H33.727Zm0 0"/></g></g><g clip-path="url(#h)"><g clip-path="url(#i)"><path fill="#14142b" d="M34.21 17.965h62.774V36.48H34.211Zm0 0"/></g></g><g clip-path="url(#j)"><g clip-path="url(#k)"><path fill="#14142b" d="M34.21 17.965h62.774V36.48H34.211Zm0 0"/></g></g><g clip-path="url(#l)"><g clip-path="url(#m)"><path fill="#14142b" d="M34.21 17.965h62.774V36.48H34.211Zm0 0"/></g></g><g clip-path="url(#n)"><path fill="#14142b" d="M34.21 17.965h62.774V36.48H34.211Zm0 0"/></g><g clip-path="url(#o)"><path fill="#14142b" d="M34.21 17.965h62.774V36.48H34.211Zm0 0"/></g><g clip-path="url(#p)"><path fill="#14142b" d="M34.21 17.965h62.774V36.48H34.211Zm0 0"/></g><g clip-path="url(#q)"><g clip-path="url(#r)"><path fill="#14142b" d="M34.188 36.48h86.148V55.06H34.188Zm0 0"/></g></g><g clip-path="url(#s)"><path fill="#14142b" d="M34.188 36.48h86.148V55.06H34.188Zm0 0"/></g><g clip-path="url(#t)"><path fill="#14142b" d="M34.188 36.48h86.148V55.06H34.188Zm0 0"/></g><g clip-path="url(#u)"><g clip-path="url(#v)"><path fill="#14142b" d="M34.188 36.48h86.148V55.06H34.188Zm0 0"/></g></g><g clip-path="url(#w)"><path fill="#14142b" d="M34.188 36.48h86.148V55.06H34.188Zm0 0"/></g><g clip-path="url(#x)"><path fill="#14142b" d="M34.188 36.48h86.148V55.06H34.188Zm0 0"/></g><g clip-path="url(#y)"><path fill="#14142b" d="M34.188 36.48h86.148V55.06H34.188Zm0 0"/></g><g clip-path="url(#z)"><g clip-path="url(#A)"><path fill="#14142b" d="M34.188 36.48h86.148V55.06H34.188Zm0 0"/></g></g><g clip-path="url(#B)"><g clip-path="url(#C)"><path fill="#14142b" d="M34.188 36.48h86.148V55.06H34.188Zm0 0"/></g></g></svg>