<svg xmlns="http://www.w3.org/2000/svg" xmlns:xlink="http://www.w3.org/1999/xlink" width="500" zoomAndPan="magnify" viewBox="0 0 375 170.249993" height="227" preserveAspectRatio="xMidYMid meet" version="1.0"><path fill="#0061ff" d="M 2.996094 109.214844 L 41.859375 109.214844 L 41.859375 131.792969 L 63.414062 131.792969 L 63.414062 40.867188 L 21.085938 40.867188 L 21.085938 1.871094 L 102.285156 1.871094 L 102.285156 166.9375 L 3.003906 166.9375 L 3.003906 109.214844 Z M 2.996094 109.214844 " fill-opacity="1" fill-rule="nonzero"/><path fill="#14142b" d="M 127.644531 49.292969 C 125.355469 51.007812 122.484375 51.078125 119.816406 51.078125 L 111.140625 51.078125 L 111.140625 41.832031 L 114.664062 41.832031 C 114.726562 41.832031 115.777344 41.832031 116.363281 41.628906 C 117.730469 41.21875 118.253906 40.191406 118.253906 37.726562 L 118.253906 2.742188 L 131.175781 2.742188 L 131.175781 38.269531 C 131.175781 42.167969 131.175781 46.757812 127.652344 49.285156 Z M 127.644531 49.292969 " fill-opacity="1" fill-rule="nonzero"/><path fill="#14142b" d="M 155.832031 51.078125 L 154.394531 40.191406 L 146.496094 40.191406 L 144.933594 51.078125 L 132.007812 51.078125 L 142.707031 2.742188 L 158.238281 2.742188 L 168.679688 51.078125 L 155.824219 51.078125 Z M 150.480469 12.195312 L 147.671875 31.570312 L 153.21875 31.570312 Z M 150.480469 12.195312 " fill-opacity="1" fill-rule="nonzero"/><path fill="#14142b" d="M 191.011719 51.078125 L 187.097656 34.371094 L 182.988281 51.078125 L 170.132812 51.078125 L 178.09375 25.8125 L 170.132812 2.742188 L 183.253906 2.742188 L 187.105469 19.308594 L 191.019531 2.742188 L 203.871094 2.742188 L 196.238281 25.8125 L 203.871094 51.078125 Z M 191.011719 51.078125 " fill-opacity="1" fill-rule="nonzero"/><path fill="#14142b" d="M 146.046875 108.691406 L 146.046875 75.5625 L 138.933594 108.691406 L 130.648438 108.691406 L 123.464844 76.175781 L 123.464844 108.691406 L 112.632812 108.691406 L 112.632812 60.359375 L 129.011719 60.359375 L 134.886719 92.261719 L 140.628906 60.359375 L 156.875 60.359375 L 156.875 108.691406 Z M 146.046875 108.691406 " fill-opacity="1" fill-rule="nonzero"/><path fill="#14142b" d="M 189.445312 105.136719 C 186.117188 108.492188 181.089844 109.386719 176.65625 109.386719 C 168.234375 109.386719 163.339844 106.714844 161.378906 103.089844 C 159.816406 100.21875 159.746094 97 159.746094 93.847656 L 159.746094 75.640625 C 159.746094 70.574219 159.808594 65.984375 164.183594 62.769531 C 166.398438 61.128906 169.988281 59.691406 176.125 59.691406 C 176.707031 59.691406 188.199219 59.277344 191.460938 66.667969 C 192.699219 69.40625 192.636719 72.417969 192.636719 75.359375 L 192.636719 93.847656 C 192.636719 98.023438 192.574219 102.0625 189.4375 105.144531 Z M 179.585938 72.410156 C 179.585938 70.839844 179.527344 68.855469 176.125 68.855469 C 172.726562 68.855469 172.796875 71.050781 172.796875 72.480469 L 172.796875 96.507812 C 172.796875 97.878906 172.796875 100.132812 176.1875 100.132812 C 179.578125 100.132812 179.578125 97.878906 179.578125 96.4375 L 179.578125 72.410156 Z M 179.585938 72.410156 " fill-opacity="1" fill-rule="nonzero"/><path fill="#14142b" d="M 224.550781 105.890625 C 221.488281 108.628906 217.246094 108.699219 213.394531 108.699219 L 195.578125 108.699219 L 195.578125 60.367188 L 215.347656 60.367188 C 216.460938 60.367188 221.742188 60.707031 224.746094 64.335938 C 227.230469 67.347656 227.097656 71.113281 227.097656 72.339844 C 227.097656 76.035156 226.441406 78.019531 225.464844 79.460938 C 223.503906 82.332031 219.976562 83.226562 219.199219 83.429688 C 220.640625 83.699219 222.070312 83.972656 223.378906 84.65625 C 227.421875 86.710938 227.945312 90.890625 227.945312 95.128906 C 227.945312 99.097656 227.617188 103.074219 224.550781 105.875 Z M 214.570312 72.964844 C 214.570312 70.292969 213.589844 69.679688 211.175781 69.679688 L 208.304688 69.679688 L 208.304688 79.679688 L 211.175781 79.679688 C 213.660156 79.679688 214.570312 78.792969 214.570312 76.050781 Z M 214.898438 92.46875 C 214.898438 89.660156 214.046875 88.773438 211.308594 88.773438 L 208.304688 88.773438 L 208.304688 99.457031 L 211.175781 99.457031 C 213.988281 99.457031 214.898438 98.773438 214.898438 95.761719 Z M 214.898438 92.46875 " fill-opacity="1" fill-rule="nonzero"/><path fill="#14142b" d="M 229.710938 60.359375 L 242.757812 60.359375 L 242.757812 108.691406 L 229.710938 108.691406 Z M 229.710938 60.359375 " fill-opacity="1" fill-rule="nonzero"/><path fill="#14142b" d="M 246.160156 108.691406 L 246.160156 60.359375 L 259.011719 60.359375 L 259.011719 99.519531 L 270.957031 99.519531 L 270.957031 108.691406 Z M 246.160156 108.691406 " fill-opacity="1" fill-rule="nonzero"/><path fill="#14142b" d="M 274.542969 108.691406 L 274.542969 60.359375 L 299.730469 60.359375 L 299.730469 69.734375 L 287.53125 69.734375 L 287.53125 79.523438 L 298.820312 79.523438 L 298.820312 88.765625 L 287.53125 88.765625 L 287.53125 99.378906 L 299.730469 99.378906 L 299.730469 108.691406 Z M 274.542969 108.691406 " fill-opacity="1" fill-rule="nonzero"/><path fill="#14142b" d="M 145.066406 153.515625 C 144.738281 158.855469 143.367188 161.25 141.539062 163.03125 C 138.078125 166.457031 133.449219 166.316406 129.011719 166.316406 L 112.566406 166.316406 L 112.566406 117.984375 L 130.445312 117.984375 C 131.488281 117.984375 136.777344 118.121094 140.558594 120.652344 C 144.933594 123.59375 145.125 128.183594 145.125 132.976562 L 145.125 149.679688 C 145.125 150.980469 145.125 152.28125 145.066406 153.515625 Z M 132.148438 131.535156 C 132.148438 128.386719 131.628906 127.289062 128.625 127.289062 L 125.621094 127.289062 L 125.621094 157.277344 L 128.625 157.277344 C 131.628906 157.277344 132.148438 156.109375 132.148438 153.308594 Z M 132.148438 131.535156 " fill-opacity="1" fill-rule="nonzero"/><path fill="#14142b" d="M 147.9375 166.316406 L 147.9375 117.984375 L 173.121094 117.984375 L 173.121094 127.359375 L 160.921875 127.359375 L 160.921875 137.148438 L 172.210938 137.148438 L 172.210938 146.390625 L 160.921875 146.390625 L 160.921875 157.003906 L 173.121094 157.003906 L 173.121094 166.316406 Z M 147.9375 166.316406 " fill-opacity="1" fill-rule="nonzero"/><path fill="#14142b" d="M 198.253906 127.226562 L 198.253906 166.316406 L 185.269531 166.316406 L 185.269531 127.226562 L 175.480469 127.226562 L 175.480469 117.984375 L 208.042969 117.984375 L 208.042969 127.226562 Z M 198.253906 127.226562 " fill-opacity="1" fill-rule="nonzero"/><path fill="#14142b" d="M 227.945312 166.316406 L 226.503906 155.429688 L 218.609375 155.429688 L 217.042969 166.316406 L 204.121094 166.316406 L 214.820312 117.984375 L 230.347656 117.984375 L 240.789062 166.316406 L 227.9375 166.316406 Z M 222.597656 127.4375 L 219.789062 146.808594 L 225.339844 146.808594 Z M 222.597656 127.4375 " fill-opacity="1" fill-rule="nonzero"/><path fill="#14142b" d="M 243.21875 117.984375 L 256.265625 117.984375 L 256.265625 166.316406 L 243.21875 166.316406 Z M 243.21875 117.984375 " fill-opacity="1" fill-rule="nonzero"/><path fill="#14142b" d="M 259.667969 166.316406 L 259.667969 117.984375 L 272.519531 117.984375 L 272.519531 157.144531 L 284.464844 157.144531 L 284.464844 166.316406 Z M 259.667969 166.316406 " fill-opacity="1" fill-rule="nonzero"/><path fill="#14142b" d="M 288.121094 117.984375 L 301.167969 117.984375 L 301.167969 166.316406 L 288.121094 166.316406 Z M 288.121094 117.984375 " fill-opacity="1" fill-rule="nonzero"/><path fill="#14142b" d="M 324.269531 166.316406 L 315.390625 137.980469 L 315.390625 166.316406 L 304.5625 166.316406 L 304.5625 117.984375 L 316.503906 117.984375 L 325.710938 146.941406 L 325.648438 117.984375 L 336.476562 117.984375 L 336.476562 166.316406 Z M 324.269531 166.316406 " fill-opacity="1" fill-rule="nonzero"/><path fill="#14142b" d="M 359.835938 166.316406 L 359.835938 161.050781 C 357.679688 165.296875 355.136719 167.070312 350.507812 167.070312 C 347.371094 167.070312 345.347656 166.246094 344.242188 165.632812 C 343.722656 165.289062 342.804688 164.746094 341.894531 163.507812 C 341.308594 162.824219 340.328125 161.382812 339.808594 159.199219 C 339.480469 157.6875 339.347656 156.257812 339.347656 153.175781 L 339.347656 132.230469 C 339.347656 127.847656 339.542969 124.011719 342.9375 120.933594 C 346.460938 117.710938 351.488281 117.164062 355.984375 117.164062 C 362.769531 117.164062 366.558594 118.667969 368.910156 120.863281 C 370.347656 122.160156 371.125 123.742188 371.390625 124.355469 C 372.042969 125.925781 372.300781 127.4375 372.300781 130.71875 L 372.300781 134.6875 L 359.835938 134.6875 L 359.835938 130.308594 C 359.835938 128.394531 359.507812 126.8125 355.984375 126.8125 C 352.722656 126.8125 352.460938 128.527344 352.460938 130.167969 L 352.460938 154.878906 C 352.460938 156.25 352.523438 158.785156 355.984375 158.785156 C 358.660156 158.785156 359.835938 157.757812 359.835938 155.089844 L 359.835938 149.613281 L 355.851562 149.613281 L 355.851562 141.050781 L 372.300781 141.050781 L 372.300781 166.316406 Z M 359.835938 166.316406 " fill-opacity="1" fill-rule="nonzero"/></svg>