<?xml version="1.0" encoding="utf-8"?>
<!-- Generator: Adobe Illustrator 28.0.0, SVG Export Plug-In . SVG Version: 6.00 Build 0)  -->
<svg version="1.1" id="Layer_1" xmlns="http://www.w3.org/2000/svg" xmlns:xlink="http://www.w3.org/1999/xlink" x="0px" y="0px"
	 viewBox="0 0 1024 1024" style="enable-background:new 0 0 1024 1024;" xml:space="preserve">
<style type="text/css">
	.st0{fill:none;stroke:#13263D;stroke-width:8;stroke-linecap:round;stroke-linejoin:round;stroke-miterlimit:10;}
	.st1{fill:#EBF1F7;}
	.st2{fill:#FFFFFF;stroke:#13263D;stroke-width:8;stroke-linecap:round;stroke-linejoin:round;stroke-miterlimit:10;}
	.st3{fill:#0061FF;stroke:#13263D;stroke-width:8;stroke-linecap:round;stroke-linejoin:round;stroke-miterlimit:10;}
	.st4{fill:none;stroke:#13263D;stroke-width:8;stroke-linecap:round;stroke-linejoin:round;}
	.st5{fill:none;stroke:#13263D;stroke-width:8;stroke-linecap:round;stroke-linejoin:round;stroke-dasharray:20.5544,20.5544;}
	.st6{fill:none;stroke:#13263D;stroke-width:8;stroke-linecap:round;stroke-linejoin:round;stroke-dasharray:19.9152,19.9152;}
	.st7{fill:none;stroke:#13263D;stroke-width:8;stroke-linecap:round;stroke-linejoin:round;stroke-dasharray:16.7814,16.7814;}
</style>
<line class="st0" x1="232.3" y1="798.8" x2="751.2" y2="798.8"/>
<circle class="st1" cx="512" cy="512" r="375"/>
<line class="st0" x1="414.4" y1="937" x2="512.7" y2="937"/>
<line class="st0" x1="548.1" y1="937" x2="571.8" y2="937"/>
<g>
	<g>
		<rect x="427" y="228.5" class="st2" width="24.5" height="47.2"/>
		<rect x="534.7" y="228.5" class="st2" width="24.5" height="47.2"/>
	</g>
</g>
<path class="st2" d="M583.4,122.7C579.7,102,561.8,87,540.8,87h-47.7h-47.7c-21,0-39,15-42.7,35.7L389.9,194
	c-4.7,26.6,15.7,51,42.7,51h60.5h60.5c27,0,47.4-24.4,42.7-51L583.4,122.7z"/>
<path class="st2" d="M653,307.4c-4.8-26.1-26.2-44.9-51-44.9H493.1H384.2c-24.8,0-46.2,18.8-51,44.9
	c-34.7,187.2-47.4,242.4-22.5,313c23.7,67.1,128.9,72.5,182.4,72.5s158.8-5.4,182.4-72.5C700.4,549.8,687.8,494.6,653,307.4z"/>
<g>
	<g>
		<line class="st0" x1="398.1" y1="262.5" x2="398.1" y2="684.2"/>
		<path class="st0" d="M345.8,280.6c0,0-3.6,50.2,2.3,86.9c5.9,36.8,49.9,70.9,49.9,70.9"/>
	</g>
	<g>
		<line class="st0" x1="588.3" y1="262.5" x2="588.3" y2="684.2"/>
		<path class="st0" d="M640.6,280.6c0,0,3.6,50.2-2.3,86.9s-49.9,70.9-49.9,70.9"/>
	</g>
</g>
<path class="st2" d="M683.6,680.6c-31.2-16.6-144.4-17.1-190.5-17.1c-46.1,0-159.3,0.5-190.5,17.1s-34.5,66.6-14,130.7
	C309,875.5,344,897,391.5,897s46.6,0,101.6,0c55,0,54,0,101.6,0s82.5-21.5,103-85.7S714.8,697.3,683.6,680.6z"/>
<path class="st0" d="M371.4,896.1c0,0,0-18.8,0-105.4s26.7-127.1,26.7-127.1"/>
<path class="st0" d="M615,896.1c0,0,0-18.8,0-105.4s-26.7-127.1-26.7-127.1"/>
<path class="st0" d="M371.4,797.9c0,0-51.9-36.8-51.9-72s25.3-51.4,51.9-58.4"/>
<path class="st0" d="M616.4,797.9c0,0,51.9-36.8,51.9-72s-25.3-51.4-51.9-58.4"/>
<line class="st0" x1="407" y1="797.9" x2="580.8" y2="797.9"/>
<circle class="st3" cx="348" cy="490.1" r="2.6"/>
<g>
	<path class="st2" d="M585,500.3l1.2,2c0,0,21.4,13,18.3,47c-0.4,4,5,5.8,7.1,2.3c7.1-11.9,14.8-29.8,11.6-48.5
		C617.5,470.6,585,500.3,585,500.3z"/>
	<path class="st3" d="M908.9,728.1l-90,64.7c-12.1,8.7-29,5.8-37.6-6.4l-53.3-76.4c-7.8-11.2-10.1-25.4-6.3-38.6
		c5.2-17.6,11.3-41,9.2-47.1c-3.6-10-18.1-12.5-20.8-19.9c-2.7-7.4-2.8-13.4-7.4-16c-4.7-2.5-13.8-7.9-12.4-16.1
		c1.4-8.1-6.4-14.3-13.1-15.4c-6.7-1.1-15.9-12.9-4.8-20.9l35.3-25.4c5.6-4,13.1-4,18.8,0l115.2,82.1c4,2.9,7.6,6.4,10.4,10.4
		l62.9,87.5C923.7,702.8,921,719.5,908.9,728.1z"/>
	
		<rect x="653.4" y="490" transform="matrix(0.8118 -0.5839 0.5839 0.8118 -168.638 492.9146)" class="st2" width="54.2" height="36.3"/>
	<path class="st2" d="M683.1,424.3c0.3,1.6-0.4,3.3-1.7,4.3c-4,3-11.5,10.5-3.7,21.2l13.8,19.2c2.1,2.9,1.4,6.9-1.5,8.9l-43.4,31.2
		c-2.1,1.5-4.9,1.6-7.1,0.3c-9.3-5.7-36-18.2-63.1,2.4l-24-33.4c0,0,40-28.8,74.4-53.5c27-19.4,45-16.9,51.5-14.9
		c1.6,0.5,2.8,1.8,3.1,3.5L683.1,424.3z"/>
	
		<rect x="548.3" y="485.2" transform="matrix(0.8118 -0.5839 0.5839 0.8118 -186.7667 419.0956)" class="st2" width="17.1" height="28.3"/>
</g>
<path class="st2" d="M799.4,742.9l-35.3-49.1c-4-5.6-2.7-13.4,2.8-17.4l55.3-39.8c5.6-4,13.4-2.7,17.4,2.8l35.3,49.1
	c4,5.6,2.7,13.4-2.8,17.4l-55.3,39.8C811.2,749.8,803.4,748.5,799.4,742.9z"/>
<g>
	<g>
		<line class="st4" x1="541.7" y1="492.8" x2="532.6" y2="497"/>
		<line class="st5" x1="513.9" y1="505.7" x2="448.7" y2="535.9"/>
		<line class="st4" x1="439.3" y1="540.2" x2="430.3" y2="544.4"/>
	</g>
</g>
<g>
	<g>
		<line class="st4" x1="558.2" y1="515.8" x2="552.5" y2="524"/>
		<line class="st6" x1="541.1" y1="540.4" x2="501.2" y2="597.5"/>
		<line class="st4" x1="495.5" y1="605.7" x2="489.8" y2="613.9"/>
	</g>
</g>
<g>
	<g>
		<line class="st4" x1="530.9" y1="518.6" x2="523.2" y2="525.1"/>
		<line class="st7" x1="510.4" y1="535.9" x2="465.5" y2="573.8"/>
		<line class="st4" x1="459.1" y1="579.2" x2="451.4" y2="585.6"/>
	</g>
</g>
<circle class="st2" cx="300.1" cy="408.7" r="121.2"/>
<g>
	<circle class="st3" cx="230.2" cy="365.3" r="14.4"/>
	<path class="st3" d="M328.3,462.8c-4.1,0.9-8.5,0.8-12.8-0.8c-8.3-2.9-13.8-10.2-15-18.3c-3.1-0.3-6.2-1-9.2-2
		c-8.9-3.2-15.9-9.3-20.3-17c-4.5,4.2-11,5.8-17.2,3.6c-8.8-3.1-13.3-12.7-10.2-21.5c3.1-8.8,12.7-13.3,21.5-10.2
		c0.6,0.2,1.3,0.5,1.9,0.8c0.3-1.4,0.7-2.9,1.2-4.3c3-8.4,8.6-15.1,15.7-19.5c-0.6-0.1-1.2-0.3-1.8-0.5c-10-3.5-15.2-14.5-11.6-24.5
		c3.5-10,14.5-15.2,24.5-11.6c10,3.5,15.2,14.5,11.6,24.5c-0.9,2.4-2.2,4.6-3.8,6.4c4.6-0.2,9.4,0.5,14,2.2
		c19.8,7,30.1,28.8,23.1,48.6c-0.5,1.5-1.2,2.9-1.9,4.3c7.1,6,10.1,15.9,6.8,25.1c-0.2,0.4-0.3,0.9-0.5,1.3c1.1,0.1,2.2,0.4,3.2,0.7
		c7.5,2.7,11.4,10.9,8.8,18.5c-2.7,7.5-10.9,11.4-18.5,8.8C331.7,475.2,327.9,469.1,328.3,462.8z"/>
</g>
<circle class="st3" cx="272.4" cy="470" r="10.7"/>
<circle class="st3" cx="374.5" cy="410.1" r="8.3"/>
<line class="st0" x1="385.8" y1="323" x2="216" y2="492.8"/>
<path class="st0" d="M275.6,247.9c8.6-1.4,17.4-2.1,26.4-2.1"/>
<path class="st0" d="M137.9,409.9c0-70.5,44.4-130.6,106.8-153.8"/>
<path class="st2" d="M588.3,380.7L588.3,380.7c0-24.7-20-44.7-44.7-44.7l0,0c24.7,0,44.7-20,44.7-44.7l0,0c0,24.7,20,44.7,44.7,44.7
	l0,0C608.3,336,588.3,356,588.3,380.7z"/>
<path class="st2" d="M371.4,864.1L371.4,864.1c0-24.7-20-44.7-44.7-44.7l0,0c24.7,0,44.7-20,44.7-44.7l0,0c0,24.7,20,44.7,44.7,44.7
	l0,0C391.4,819.4,371.4,839.4,371.4,864.1z"/>
<path class="st2" d="M777.3,483.1L777.3,483.1c0-24.7-20-44.7-44.7-44.7l0,0c24.7,0,44.7-20,44.7-44.7l0,0c0,24.7,20,44.7,44.7,44.7
	l0,0C797.3,438.4,777.3,458.4,777.3,483.1z"/>
</svg>
