<?xml version="1.0" encoding="utf-8"?>
<!-- Generator: Adobe Illustrator 28.0.0, SVG Export Plug-In . SVG Version: 6.00 Build 0)  -->
<svg version="1.1" id="Layer_1" xmlns="http://www.w3.org/2000/svg" xmlns:xlink="http://www.w3.org/1999/xlink" x="0px" y="0px"
	 viewBox="0 0 1024 1024" style="enable-background:new 0 0 1024 1024;" xml:space="preserve">
<style type="text/css">
	.st0{fill:#EBF1F7;}
	.st1{fill:#0061FF;stroke:#13263D;stroke-width:8;stroke-linecap:round;stroke-linejoin:round;stroke-miterlimit:10;}
	.st2{fill:#FFFFFF;stroke:#13263D;stroke-width:8;stroke-linecap:round;stroke-linejoin:round;stroke-miterlimit:10;}
	.st3{fill:none;stroke:#13263D;stroke-width:8;stroke-linecap:round;stroke-linejoin:round;stroke-miterlimit:10;}
	.st4{fill:#FFFFFF;}
	.st5{fill:#0061FF;}
</style>
<circle class="st0" cx="512" cy="512" r="375"/>
<path class="st1" d="M879.4,838.3c0,0-2.5-182-12.8-300.8c-1.6-18.3-5.2-37.6-11.1-57.1c-19.7-64.9-64.9-132-144.8-174.5
	c-51.2-27.2-116.6-44.4-198.7-44.4c-82.1,0-147.5,17.2-198.7,44.4c-79.9,42.5-125.1,109.6-144.8,174.5c-5.9,19.5-9.5,38.7-11.1,57.1
	c-10.3,118.8-12.8,300.8-12.8,300.8"/>
<path class="st2" d="M312.1,351.3c-28.2,29-64.1,118.8-111.1,131.6c-15.6,4.2-25.8,2.2-32.5-2.4c19.7-64.9,64.9-132,144.8-174.5
	C325,313.3,333.3,329.4,312.1,351.3z"/>
<path class="st1" d="M223.3,470.8c0,0-28.3,106-19.8,270.9"/>
<path class="st3" d="M237.2,433.2c-14.7,12.5-28.5,8-22.4-10.9s22.4-15.1,22.4-15.1"/>
<path class="st3" d="M276.6,371.4c-12.5,4.8-4.8-21.1,8.7-23.1c13.5-1.9,9.3,6.4,9.3,6.4"/>
<path class="st2" d="M711.9,351.3c28.2,29,64.1,118.8,111.1,131.6c15.6,4.2,25.8,2.2,32.5-2.4c-19.7-64.9-64.9-132-144.8-174.5
	C699,313.3,690.7,329.4,711.9,351.3z"/>
<path class="st2" d="M805.1,838.3l15.4-96.5c0,0-63.2-104.2-308.4-104.2S203.6,741.7,203.6,741.7l15.4,96.5"/>
<path class="st1" d="M816.2,564.6c6.5,59.1,7.8,118,4.3,177.1"/>
<path class="st1" d="M800.7,470.8c3.4,17.2,8.9,34.6,10,51.7"/>
<path class="st3" d="M786.8,433.2c14.7,12.5,28.5,8,22.4-10.9s-22.4-15.1-22.4-15.1"/>
<path class="st3" d="M747.4,371.4c12.5,4.8,4.8-21.1-8.7-23.1s-9.3,6.4-9.3,6.4"/>
<g>
	<g>
		<g>
			<circle class="st4" cx="494.3" cy="475.3" r="130.9"/>
			<circle class="st3" cx="494.3" cy="475.3" r="130.9"/>
		</g>
		<g>
			<circle class="st4" cx="494.3" cy="475.3" r="100.6"/>
			<circle class="st3" cx="494.3" cy="475.3" r="100.6"/>
		</g>
		<g>
			<path class="st4" d="M541.3,495v-33.5h79.3c9.2,0,16.7,7.5,16.7,16.7v0c0,9.2-7.5,16.7-16.7,16.7H541.3z"/>
			<path class="st3" d="M541.3,495v-33.5h79.3c9.2,0,16.7,7.5,16.7,16.7v0c0,9.2-7.5,16.7-16.7,16.7H541.3z"/>
		</g>
		<g>
			<path class="st4" d="M607.9,500.5v-44.5h73.8c12.3,0,22.2,10,22.2,22.2v0c0,12.3-10,22.2-22.2,22.2H607.9z"/>
			<path class="st3" d="M607.9,500.5v-44.5h73.8c12.3,0,22.2,10,22.2,22.2v0c0,12.3-10,22.2-22.2,22.2H607.9z"/>
		</g>
		<g>
			<circle class="st5" cx="494.3" cy="475.3" r="78.4"/>
			<circle class="st3" cx="494.3" cy="475.3" r="78.4"/>
		</g>
		<g>
			<path class="st5" d="M494.3,170.3c-13.3,0-24.1,10.8-24.1,24.1V372c0,7.7,6.3,14,14,14h20.1c7.7,0,14-6.3,14-14V228.6v-34.2
				C518.3,181.1,507.6,170.3,494.3,170.3z"/>
			<path class="st3" d="M494.3,170.3c-13.3,0-24.1,10.8-24.1,24.1V372c0,7.7,6.3,14,14,14h20.1c7.7,0,14-6.3,14-14V228.6v-34.2
				C518.3,181.1,507.6,170.3,494.3,170.3z"/>
		</g>
		<g>
			<path class="st5" d="M450.9,450.6V303.4c0-13.9,11.3-25.3,25.3-25.3h36.1c13.9,0,25.3,11.3,25.3,25.3v147.1
				c0,23.9-19.4,43.3-43.3,43.3h0C470.3,493.9,450.9,474.5,450.9,450.6z"/>
			<path class="st3" d="M450.9,450.6V303.4c0-13.9,11.3-25.3,25.3-25.3h36.1c13.9,0,25.3,11.3,25.3,25.3v147.1
				c0,23.9-19.4,43.3-43.3,43.3h0C470.3,493.9,450.9,474.5,450.9,450.6z"/>
		</g>
		<path class="st1" d="M494.3,169.4c0,0,0,9.8,0-47.3"/>
	</g>
</g>
<line class="st3" x1="110.2" y1="838.3" x2="913.8" y2="838.3"/>
<line class="st3" x1="334.7" y1="709.4" x2="260.3" y2="783.7"/>
<line class="st3" x1="432.2" y1="680.4" x2="303" y2="809.6"/>
<path class="st3" d="M650.8,236.9c-16.3-4.8-33.5-8.8-51.6-12"/>
<path class="st3" d="M725.5,267.2c-13.4-7.1-27.6-13.6-42.7-19.4"/>
<path class="st3" d="M890.1,465.6c-22.4-73.8-73.8-150.1-164.6-198.4"/>
<line class="st3" x1="370.3" y1="879.7" x2="637.6" y2="879.7"/>
<line class="st3" x1="685.6" y1="879.7" x2="730.8" y2="879.7"/>
<path class="st2" d="M878.4,833.3L878.4,833.3c0-19.3-15.7-35-35-35v0c19.3,0,35-15.7,35-35h0c0,19.3,15.7,35,35,35v0
	C894.1,798.3,878.4,814,878.4,833.3z"/>
<path class="st2" d="M650.8,395L650.8,395c0-19.3-15.7-35-35-35v0c19.3,0,35-15.7,35-35h0c0,19.3,15.7,35,35,35v0
	C666.4,360,650.8,375.7,650.8,395z"/>
<path class="st2" d="M295.2,641L295.2,641c0-32.2-26.1-58.3-58.3-58.3v0c32.2,0,58.3-26.1,58.3-58.3h0c0,32.2,26.1,58.3,58.3,58.3v0
	C321.3,582.8,295.2,608.9,295.2,641z"/>
</svg>
