<?xml version="1.0" encoding="utf-8"?>
<!-- Generator: Adobe Illustrator 28.0.0, SVG Export Plug-In . SVG Version: 6.00 Build 0)  -->
<svg version="1.1" id="Layer_1" xmlns="http://www.w3.org/2000/svg" xmlns:xlink="http://www.w3.org/1999/xlink" x="0px" y="0px"
	 viewBox="0 0 1024 1024" style="enable-background:new 0 0 1024 1024;" xml:space="preserve">
<style type="text/css">
	.st0{fill:#EBF1F7;}
	.st1{fill:#FFFFFF;}
	.st2{fill:none;stroke:#13263D;stroke-width:8;stroke-linecap:round;stroke-linejoin:round;stroke-miterlimit:10;}
	.st3{fill:#FFFFFF;stroke:#13263D;stroke-width:8;stroke-linecap:round;stroke-linejoin:round;stroke-miterlimit:10;}
	.st4{fill:#0061FF;stroke:#13263D;stroke-width:8;stroke-linecap:round;stroke-linejoin:round;stroke-miterlimit:10;}
</style>
<circle class="st0" cx="512" cy="512" r="375"/>
<path class="st1" d="M847.8,171.9c-47.6-1.4-97.9-0.4-152.5,3.6c-207.4,15-461.2,188.3-461.2,188.3s-36.9,2.6-120.6,14.7v353.7H922
	V176.5L847.8,171.9z"/>
<g>
	<line class="st2" x1="922" y1="732.2" x2="113.4" y2="732.2"/>
	<path class="st2" d="M113.4,378.5c83.8-12.1,120.6-14.7,120.6-14.7s253.8-173.3,461.2-188.3c54.6-4,104.9-5,152.5-3.6l74.2,4.6"/>
	<line class="st2" x1="922" y1="732.2" x2="205.1" y2="732.2"/>
</g>
<path class="st3" d="M382.4,372.7c-40.2,0.7-67,3-70.6,3c-6.4,0,19.9-18.2,57.6-40.6C362.7,349.7,370,367.8,382.4,372.7z"/>
<path class="st4" d="M880.3,213.2l-29.2,144.1c-18.5,0.9-30.3,1.5-30.3,1.5c-83.4,6.7-235.4,11.2-351,13.9c2.2-1.6,3.9-4.4,5.1-7.8
	c0,0,0-0.1,0-0.1c4.3-12.1,2.8-32.3-4.8-38.2c-0.3-0.3-0.7-0.5-1-0.7c-13-7.3-19.8-6.9-68.7-6.9c-1.1,0-2.1,0-3.2,0.1
	c37.8-21.1,80.9-42.9,113.8-55c77.8-28.5,155.5-64.8,339.8-53.2C860.7,211.5,870.5,212.3,880.3,213.2z"/>
<path class="st3" d="M922,217.7l-9.9,44.8l-18.6,92.6c-16,0.9-30.6,1.6-42.5,2.2l29.2-144.1c0.3,0,0.6,0,0.8,0.1L922,217.7z"/>
<path class="st2" d="M312.6,372.7c-0.1,0.1-0.2,0.2-0.3,0.2c-57.1,46.7-72.8,126.1-56.4,224.6c16.4,98.6,36.9,84.3,76.4,84.3
	c39.6,0,106.4,0,227.8,0s241.5,11.7,281.1-32.4c39.6-44.1,43.7-99.9,51.8-190.7c8.2-90.8,0-101.4,0-101.4l0.4-2.2"/>
<path class="st3" d="M474.4,366c-1,1.9-4.3,6.7-5.3,6.7c-6.2,0-80.9,0-80.9,0c-2,0-4,0.7-5.8,0c-12.5-4.9-19.7-23-13-37.6
	c3.9-8.5,12.6-15.2,27.8-16c1-0.1,2.1-0.1,3.2-0.1c48.8,0,55.7-0.4,68.6,6.9C480,332.1,479.3,356.2,474.4,366z"/>
<path class="st4" d="M113.4,508.2c1.1,0.4,2.1,0.8,3.2,1.2c81.1,32.5,120.5,124.7,88,205.9c-3.4,8.4-7.3,16.3-11.9,23.7
	c-5.9,9.7-12.8,18.5-20.4,26.5c-16.6,17.4-36.8,30.6-58.9,39"/>
<path class="st3" d="M112.3,580.4c33.9,24.8,48,70.2,31.7,111c-6.8,16.9-18,30.8-31.7,40.9"/>
<line class="st2" x1="765.4" y1="438.4" x2="831.1" y2="433.8"/>
<circle class="st3" cx="558.2" cy="547.7" r="118.6"/>
<circle class="st4" cx="558.2" cy="547.7" r="93.4"/>
<g>
	<g>
		<path class="st3" d="M479.5,933.9c26.1-109.9,28.7-155,16.1-184.7c-3.4-7.9-11.5-28.6-17.1-44c-6.2-15.4-20.2-63-21.4-81.6
			c-1.7-24.7-6.7-42.2,2.3-43.8c11.1-2,25.9,9.2,29,33.1c3.2,23.9,10.9,36.3,10.8,36.3c14-31.4,11.1-58.6,12.5-79.7
			c0.5-6.9,1.7-35.2,1.4-48.5c-0.2-6,3.9-11.5,9.6-12.9l0,0c7.1-1.8,13.7,3.3,14.1,10.8c0.8,12.7,1.4,30.6,2.1,38.6
			c0.3,12.9,0.1,63.2,0.7,63.4c-0.1,0,1.4-28.1,3.4-51.4c0.9-16.9-0.3-55.4-0.7-75.1c-0.3-7,5-13.3,11.7-14.3c0,0,0,0,0,0
			c7-1,12.8,4.2,13.1,11.5c0.4,16.2,0.4,43,1.1,53.3c-0.4,14.9,0.1,79.4,1,79.6c-1-0.2,0.2-64.7,1.7-74.6c0.1-7.2,1.8-34.4,1.7-49.4
			c-0.1-6.1,4-11.5,9.5-12.9c0,0,0,0,0,0c7-1.8,13.3,3.3,13.6,10.8c0.5,16.9,1,44.1,2.3,50.9c0.3,9.6-0.3,76.6,0.8,76.8
			c-0.4-0.1,2.8-35.6,3.6-52.4c0.4-7.4,0.8-24.4,1-35.4c0-5.9,3.7-10.9,8.8-12.1c0,0,0,0,0,0c6.1-1.5,12.1,2.8,13.4,9.6
			c1.1,5.2,3,29,3.5,38.2c1.4,27.6,2.8,47.2,2.1,79.7c-1.5,32.1,0.5,60.5-22.2,104.1c-19.2,36.7-8,176.1-8,176.1"/>
	</g>
</g>
<path class="st2" d="M484.4,181.6c9.8-3.6,19.6-7,29.5-10.2"/>
<path class="st2" d="M262.6,295.1c0,0,84.5-56.6,186.1-99.4"/>
<path class="st3" d="M463.1,806.1c0.5-9,0.4-17.2-0.5-23.8"/>
<path class="st3" d="M442.5,916.2c0,0,11.7-42.8,17.6-82.8"/>
<path class="st3" d="M366.9,503.8L366.9,503.8c0-28.8-23.3-52.1-52.1-52.1l0,0c28.8,0,52.1-23.3,52.1-52.1l0,0
	c0,28.8,23.3,52.1,52.1,52.1l0,0C390.2,451.7,366.9,475,366.9,503.8z"/>
<path class="st3" d="M766.3,611L766.3,611c0-17.5-14.2-31.6-31.6-31.6l0,0c17.5,0,31.6-14.2,31.6-31.6l0,0
	c0,17.5,14.2,31.6,31.6,31.6l0,0C780.5,579.4,766.3,593.5,766.3,611z"/>
</svg>
