<?xml version="1.0" encoding="utf-8"?>
<!-- Generator: Adobe Illustrator 28.0.0, SVG Export Plug-In . SVG Version: 6.00 Build 0)  -->
<svg version="1.1" id="Layer_1" xmlns="http://www.w3.org/2000/svg" xmlns:xlink="http://www.w3.org/1999/xlink" x="0px" y="0px"
	 viewBox="0 0 1024 1024" style="enable-background:new 0 0 1024 1024;" xml:space="preserve">
<style type="text/css">
	.st0{fill:#EBF1F7;}
	.st1{fill:#0061FF;stroke:#13263D;stroke-width:8;stroke-linecap:round;stroke-linejoin:round;stroke-miterlimit:10;}
	.st2{fill:#FFFFFF;stroke:#13263D;stroke-width:8;stroke-linecap:round;stroke-linejoin:round;stroke-miterlimit:10;}
	.st3{fill:none;stroke:#13263D;stroke-width:8;stroke-linecap:round;stroke-linejoin:round;stroke-miterlimit:10;}
</style>
<circle class="st0" cx="512" cy="512" r="375"/>
<g>
	<path class="st1" d="M820.3,622.1c0,0-90.8,24.6-253.5,12.7c-162.7-11.8-421.3,8.4-428.2,0c-6.9-8.4-70.2-47.9-71.9-136
		S89,328.4,155.8,321.5c66.8-6.9,554.9-7.6,589.2-11.5c34.3-3.9,87.3,50.9,99.3,81.7S841.6,617.6,820.3,622.1z"/>
	<path class="st2" d="M461.1,453.4c0,9.9,8,17.9,17.9,17.9h129.6c45.7,0,44.5-7.3,44.5-33v-22.8c0-15.3-11.3-28.2-26.4-30.3l0,0
		c-10.1-1.4-18.9-7.7-23.3-16.8l-1-2c-5.1-10.5-15.8-17.1-27.4-17.1h-95.9c-9.9,0-17.9,8-17.9,17.9V453.4z"/>
	<path class="st2" d="M398.2,447.5c0,0,4.6,0,10,0c5.4,0,15.7-1.2,15.7-38.4c0-37.2-10.4-38.4-15.7-38.4c-5.4,0-10,0-10,0
		s1.5-13.4-15-13.4h-78.7c-8,0-14.4,6.4-14.4,14.4v37.4v37.4c0,8,6.4,14.4,14.4,14.4h78.7C399.7,461,398.2,447.5,398.2,447.5z"/>
	<path class="st2" d="M461.1,505.2c0-9.9,8-17.9,17.9-17.9h129.6c45.7,0,44.5,7.3,44.5,33v22.8c0,15.3-11.3,28.2-26.4,30.3l0,0
		c-10.1,1.4-18.9,7.7-23.3,16.8l-1,2c-5.1,10.5-15.8,17.1-27.4,17.1h-95.9c-9.9,0-17.9-8-17.9-17.9V505.2z"/>
	<path class="st2" d="M398.2,508.9c0,0,4.6,0,10,0c5.4,0,15.7,1.2,15.7,38.4s-10.4,38.4-15.7,38.4c-5.4,0-10,0-10,0
		s1.5,13.4-15,13.4h-78.7c-8,0-14.4-6.4-14.4-14.4v-37.4v-37.4c0-8,6.4-14.4,14.4-14.4h78.7C399.7,495.5,398.2,508.9,398.2,508.9z"
		/>
	<path class="st2" d="M787,298.4l-84.8,25.3c0,0,0,32.5,0,72.4s-11.6,59.1-42.4,59.1H487.4c-6.2,0-11.3,5.1-11.3,11.3v9.7v4.3v9.7
		c0,6.2,5.1,11.3,11.3,11.3h172.4c30.8,0,42.4,19.3,42.4,59.1c0,39.8,0,72.4,0,72.4l84.8,25.3l66.8-68.1V480.4v-4.3V366.5L787,298.4
		z"/>
	<path class="st2" d="M670,667.4l-6.4,10.1c0,0-23.8-4.9-26.3,1.9s-17.6,53.2-12.4,54.9c5.1,1.6,21.4,5.9,30.8-6.5
		c9.4-12.4,15.2-41.4,36.8-62.5l-9.4-6.5L670,667.4z"/>
	<path class="st2" d="M670,289.5l-6.4-9.6c0,0-23.8,4.6-26.3-1.8c-2.6-6.4-17.6-50.2-12.4-51.8c5.1-1.5,21.4-5.6,30.8,6.1
		c9.4,11.7,15.2,39.1,36.8,58.9l-9.4,6.1L670,289.5z"/>
	<path class="st2" d="M751.4,635c0,0-135.3-23.1-316.9-23.1s-298.4,3-298.4,3c-14.6,0-48.4-59.5-48.4-136.6
		c0-77.1,33.8-136.6,48.4-136.6c0,0,116.9,3,298.4,3s316.9-23.1,316.9-23.1c45,51.8,45,156.7,45,156.7S796.3,583.1,751.4,635z
		 M958.7,385.9c-7.6-20.2-17.9-38.6-31.3-50.3c-11.2-9.6-26.6-17.9-44-24.6c-39.8-15.3-90.2-22.3-125.1-18.7
		c-50.1,5.1-62.9-2.6-123.3-2.6H338.6c-63.8,0-104.9-3-148.6,8.1c-43.7,11.1-51-1.7-75.8,12C89.4,323.7,47,377.6,47,478.2
		c0,100.6,42.4,154.6,67.2,168.3c24.8,13.7,32.1,0.9,75.8,12c43.7,11.1,84.8,8.1,148.6,8.1h296.3c60.4,0,73.2-7.7,123.3-2.6
		c34.7,3.6,84.7-3.3,124.5-18.4c17.7-6.7,33.3-15,44.7-24.8c13.2-11.3,23.3-29.3,30.8-48.9c13.5-35.2,18.8-75.8,18.8-93.7
		C977,460.6,971.8,420.8,958.7,385.9z"/>
	<path class="st2" d="M246.8,642.9c0,0,103.6-12,195.2-12s225.2,12.6,257.5,18.6c0,0-164.7,4.3-252.3,3.1s-176.1-4.3-176.1-4.3
		L246.8,642.9z"/>
	<line class="st2" x1="294" y1="638.3" x2="305.9" y2="649.5"/>
	<line class="st2" x1="429.8" y1="631" x2="447.2" y2="652.6"/>
	<line class="st2" x1="459.5" y1="631.1" x2="480.3" y2="652.8"/>
	<line class="st2" x1="639.9" y1="642.1" x2="644.7" y2="650.8"/>
	<path class="st2" d="M246.8,313.5c0,0,103.6,12,195.2,12S667.3,313,699.5,307c0,0-164.7-4.3-252.3-3.1s-176.1,4.3-176.1,4.3
		L246.8,313.5z"/>
	<line class="st2" x1="294" y1="318.2" x2="305.9" y2="307"/>
	<line class="st2" x1="429.8" y1="325.5" x2="447.2" y2="303.8"/>
	<line class="st2" x1="459.5" y1="325.4" x2="480.3" y2="303.6"/>
	<line class="st2" x1="639.9" y1="314.3" x2="644.7" y2="305.7"/>
	<line class="st2" x1="751.4" y1="321.5" x2="900.8" y2="345.2"/>
	<line class="st2" x1="751.4" y1="635" x2="900.8" y2="610.9"/>
	<path class="st2" d="M958.2,571.9c-7.5,19.6-17.7,37.6-30.8,48.9c-11.3,9.8-27,18.1-44.7,24.8c0,0,9-24.4,30.1-42.4
		C933.9,585.3,958.2,571.9,958.2,571.9z"/>
	<path class="st2" d="M958.7,385.9l-0.5,0.1c0,0-24.3-13.4-45.4-31.3c-21.1-18-30.1-42.4-30.1-42.4l0.6-1.2
		c17.4,6.7,32.8,14.9,44,24.6C940.8,347.3,951.1,365.8,958.7,385.9z"/>
	<line class="st2" x1="141.4" y1="340.8" x2="124.5" y2="305.4"/>
	<line class="st2" x1="141.4" y1="615.5" x2="124.5" y2="650.9"/>
	<path class="st2" d="M218.8,564.7h-69.8c-8.9,0-16.1-7.2-16.1-16.1v-136c0-8.9,7.2-16.1,16.1-16.1h69.8c8.9,0,16.1,7.2,16.1,16.1
		v136C235,557.5,227.7,564.7,218.8,564.7z"/>
	<path class="st2" d="M357.1,536.2h-32.8c-6.1,0-11.1-5-11.1-11.1v-88.9c0-6.1,5-11.1,11.1-11.1h32.8c6.1,0,11.1,5,11.1,11.1V525
		C368.3,531.2,363.3,536.2,357.1,536.2z"/>
	<line class="st3" x1="540.4" y1="253.4" x2="403.4" y2="253.4"/>
	<line class="st3" x1="368.3" y1="253.4" x2="336.6" y2="253.4"/>
	<line class="st3" x1="372.4" y1="705.2" x2="509.5" y2="705.2"/>
	<line class="st3" x1="544.6" y1="705.2" x2="576.3" y2="705.2"/>
	<path class="st2" d="M532.3,436.1L532.3,436.1c0-18.8-15.2-34-34-34v0c18.8,0,34-15.2,34-34h0c0,18.8,15.2,34,34,34v0
		C547.5,402,532.3,417.3,532.3,436.1z"/>
	<path class="st2" d="M587.3,579.3L587.3,579.3c0-17.1-13.8-30.9-30.9-30.9v0c17.1,0,30.9-13.8,30.9-30.9h0
		c0,17.1,13.8,30.9,30.9,30.9v0C601.2,548.4,587.3,562.2,587.3,579.3z"/>
	<path class="st2" d="M235,527.9L235,527.9c0-24-19.5-43.5-43.5-43.5v0c24,0,43.5-19.5,43.5-43.5h0c0,24,19.5,43.5,43.5,43.5v0
		C254.4,484.4,235,503.9,235,527.9z"/>
</g>
<g>
	<g>
		<g>
			<path class="st2" d="M751.1,479.8l-0.2,2.2c0,0,9.4,22.2-12.1,47c-2.6,3,0.7,7.3,4.2,5.8c12.2-5.3,28.3-15,36.2-31.4
				C793.1,474.9,751.1,479.8,751.1,479.8z"/>
			<path class="st1" d="M876,839.5H769.5c-14.4,0-25.9-11.7-25.7-26.1l1.2-89.5c0.2-13.2,6.4-25.5,16.8-33.6
				c13.9-10.8,31.8-25.7,33.6-31.6c2.9-9.8-7.1-20-5.1-27.2c2.1-7.3,5.4-12,3.2-16.6s-6.3-13.9-0.6-19.5c5.7-5.5,3-14.7-1.6-19.3
				s-5.2-19,7.9-19h41.8c6.6,0,12.5,4.2,14.7,10.5l43.8,128.7c1.5,4.5,2.3,9.2,2.3,14v103.6C901.8,828,890.2,839.5,876,839.5z"/>
			<rect x="795.2" y="522.1" class="st2" width="52.1" height="34.9"/>
			<path class="st2" d="M870.3,475.6c-0.7,1.4-2.2,2.3-3.8,2.4c-4.8,0.1-14.8,1.7-14.8,14.5v22.8c0,3.4-2.8,6.2-6.2,6.2h-51.3
				c-2.5,0-4.7-1.5-5.7-3.8c-4.1-9.7-17.9-34.5-50.6-33.5v-39.6c0,0,47.4,0,88.1,0c32,0,44.6,12.1,48.5,17.3c1,1.3,1.1,3,0.4,4.5
				L870.3,475.6z"/>
			<rect x="721.5" y="449.7" class="st2" width="16.4" height="27.2"/>
		</g>
		<line class="st2" x1="866.6" y1="477.9" x2="806.6" y2="477.9"/>
	</g>
	<line class="st3" x1="937.1" y1="818.2" x2="937.1" y2="761.9"/>
	<line class="st3" x1="937.1" y1="731.6" x2="937.1" y2="713.8"/>
	<path class="st2" d="M901.8,792.5h-93.1c-7.4,0-13.5-6-13.5-13.5v-51.7c0-7.4,6-13.5,13.5-13.5h93.1V792.5z"/>
</g>
</svg>
