<?xml version="1.0" encoding="utf-8"?>
<!-- Generator: Adobe Illustrator 28.0.0, SVG Export Plug-In . SVG Version: 6.00 Build 0)  -->
<svg version="1.1" id="Layer_1" xmlns="http://www.w3.org/2000/svg" xmlns:xlink="http://www.w3.org/1999/xlink" x="0px" y="0px"
	 viewBox="0 0 1024 1024" style="enable-background:new 0 0 1024 1024;" xml:space="preserve">
<style type="text/css">
	.st0{fill:#EBF1F7;}
	.st1{fill:#FFFFFF;stroke:#13263D;stroke-width:8;stroke-linecap:round;stroke-linejoin:round;stroke-miterlimit:10;}
	.st2{fill:#0061FF;stroke:#13263D;stroke-width:8;stroke-linecap:round;stroke-linejoin:round;stroke-miterlimit:10;}
	.st3{fill:none;stroke:#13263D;stroke-width:8;stroke-linecap:round;stroke-linejoin:round;stroke-miterlimit:10;}
</style>
<circle class="st0" cx="512" cy="512" r="375"/>
<g>
	<path class="st1" d="M282.2,205l-0.3,4.2c0,0,17.9,42-22.9,88.9c-4.9,5.6,1.2,13.9,8,11c23.2-10,53.6-28.4,68.6-59.4
		C361.8,195.6,282.2,205,282.2,205z"/>
	<path class="st2" d="M518.8,886.1H317.1c-27.2,0-49.1-22.2-48.7-49.4l2.4-169.5c0.3-25,12.1-48.4,31.8-63.7
		c26.3-20.5,60.3-48.6,63.6-59.9c5.4-18.6-13.5-37.8-9.6-51.6c3.9-13.8,10.2-22.8,6-31.5c-4.2-8.7-12-26.4-1.2-36.9
		c10.8-10.5,5.7-27.9-3-36.6c-8.7-8.7-9.8-36,15-36h79.1c12.6,0,23.7,8,27.8,19.9l83,243.8c2.9,8.5,4.4,17.5,4.4,26.4v196.2
		C567.6,864.2,545.7,886.1,518.8,886.1z"/>
	<rect x="365.7" y="284.9" class="st1" width="98.6" height="66.1"/>
	<path class="st1" d="M508,196.8c-1.3,2.7-4.1,4.4-7.1,4.5c-9.1,0.1-28.1,3.3-28.1,27.4v43.1c0,6.4-5.2,11.7-11.7,11.7h-97.2
		c-4.7,0-8.9-2.8-10.7-7.1c-7.8-18.3-33.8-65.2-95.9-63.5v-74.9c0,0,89.8,0,166.8,0c60.6,0,84.4,22.9,91.9,32.7
		c1.8,2.4,2.2,5.7,0.8,8.4L508,196.8z"/>
	<rect x="226.1" y="147.8" class="st1" width="31.1" height="51.6"/>
</g>
<g>
	<path class="st1" d="M815.5,687.2v-76.6H625.9H436.3v76.6l8.6,8.6v132l-8.6,7.6c0,36.4,33.4,50.6,97.4,50.6c64,0,92.2,0,92.2,0
		s28.2,0,92.2,0s97.4-14.2,97.4-50.6l-8.6-7.6v-132L815.5,687.2z"/>
	<path class="st2" d="M789.6,536.2H462.2c-14.3,0-25.9,11.6-25.9,25.9v48.5h379.2v-48.5C815.5,547.9,803.9,536.2,789.6,536.2z"/>
	<line class="st2" x1="436.3" y1="687.2" x2="678.1" y2="687.2"/>
	<line class="st3" x1="735.1" y1="687.2" x2="815.5" y2="687.2"/>
	<line class="st2" x1="436.3" y1="835.4" x2="678.1" y2="835.4"/>
	<line class="st3" x1="735.1" y1="835.4" x2="815.5" y2="835.4"/>
	<g>
		<line class="st3" x1="469.9" y1="567.3" x2="469.9" y2="591.9"/>
		<line class="st3" x1="504.6" y1="567.3" x2="504.6" y2="591.9"/>
		<line class="st3" x1="539.3" y1="567.3" x2="539.3" y2="591.9"/>
		<line class="st3" x1="573.9" y1="567.3" x2="573.9" y2="591.9"/>
		<line class="st3" x1="608.6" y1="567.3" x2="608.6" y2="591.9"/>
		<line class="st3" x1="643.2" y1="567.3" x2="643.2" y2="591.9"/>
		<line class="st3" x1="677.9" y1="567.3" x2="677.9" y2="591.9"/>
		<line class="st3" x1="712.5" y1="567.3" x2="712.5" y2="591.9"/>
		<line class="st3" x1="747.2" y1="567.3" x2="747.2" y2="591.9"/>
		<line class="st3" x1="781.9" y1="567.3" x2="781.9" y2="591.9"/>
	</g>
	<line class="st3" x1="436.3" y1="591.9" x2="815.5" y2="591.9"/>
</g>
<line class="st1" x1="500.9" y1="201.3" x2="387.4" y2="201.3"/>
<path class="st1" d="M629.1,234.5c-12.4-27.8-48.9-34.1-69.8-12L518,266.2l-41.3,43.7c-20.9,22.1-12.4,58.2,16,69
	c61.4,23.4,105.4,65,132.3,124.9c12.4,27.8,48.9,34.1,69.8,12l41.3-43.7l41.3-43.7c20.9-22.1,12.4-58.2-16-69
	C700,336,656,294.4,629.1,234.5z"/>
<path class="st1" d="M539.3,333.7c0,6-4.9,10.9-10.9,10.9s-10.9-4.9-10.9-10.9c0-6,4.9-10.9,10.9-10.9"/>
<path class="st1" d="M581.9,369.2c0,6-4.9,10.9-10.9,10.9s-10.9-4.9-10.9-10.9s4.9-10.9,10.9-10.9"/>
<path class="st1" d="M636.8,369.2c0,6-4.9,10.9-10.9,10.9c-6,0-10.9-4.9-10.9-10.9s4.9-10.9,10.9-10.9"/>
<path class="st1" d="M701.4,373c0,6-4.9,10.9-10.9,10.9s-10.9-4.9-10.9-10.9c0-6,4.9-10.9,10.9-10.9"/>
<path class="st1" d="M688.7,419.2c0,6-4.9,10.9-10.9,10.9s-10.9-4.9-10.9-10.9c0-6,4.9-10.9,10.9-10.9"/>
<path class="st1" d="M750.7,408.3c0,6-4.9,10.9-10.9,10.9c-6,0-10.9-4.9-10.9-10.9s4.9-10.9,10.9-10.9"/>
<path class="st1" d="M682.7,479.3c0,6-4.9,10.9-10.9,10.9s-10.9-4.9-10.9-10.9s4.9-10.9,10.9-10.9"/>
<path class="st1" d="M599.3,315.4c0,6-4.9,10.9-10.9,10.9c-6,0-10.9-4.9-10.9-10.9s4.9-10.9,10.9-10.9"/>
<path class="st1" d="M654.1,322.9c0,6-4.9,10.9-10.9,10.9c-6,0-10.9-4.9-10.9-10.9c0-6,4.9-10.9,10.9-10.9"/>
<path class="st1" d="M636.8,435c0,6-4.9,10.9-10.9,10.9c-6,0-10.9-4.9-10.9-10.9s4.9-10.9,10.9-10.9"/>
<path class="st1" d="M584.8,263.8c0,6-4.9,10.9-10.9,10.9s-10.9-4.9-10.9-10.9c0-6,4.9-10.9,10.9-10.9"/>
<line class="st3" x1="156.3" y1="886.1" x2="900.5" y2="886.1"/>
<line class="st3" x1="226.1" y1="827.3" x2="226.1" y2="723.6"/>
<line class="st3" x1="226.1" y1="686.3" x2="226.1" y2="661.3"/>
<path class="st3" d="M769.2,319.6c-44.2-16.8-75.9-46.8-95.2-90"/>
<path class="st3" d="M793.5,329.2c0,0,21.4,8.8,23,24.8"/>
</svg>
