<?xml version="1.0" encoding="utf-8"?>
<!-- Generator: Adobe Illustrator 28.0.0, SVG Export Plug-In . SVG Version: 6.00 Build 0)  -->
<svg version="1.1" id="Layer_1" xmlns="http://www.w3.org/2000/svg" xmlns:xlink="http://www.w3.org/1999/xlink" x="0px" y="0px"
	 viewBox="0 0 1024 1024" style="enable-background:new 0 0 1024 1024;" xml:space="preserve">
<style type="text/css">
	.st0{fill:#EBF1F7;}
	.st1{fill:#FFFFFF;}
	.st2{fill:none;stroke:#13263D;stroke-width:8;stroke-linecap:round;stroke-linejoin:round;stroke-miterlimit:10;}
	.st3{fill:#FFFFFF;stroke:#13263D;stroke-width:8;stroke-linecap:round;stroke-linejoin:round;stroke-miterlimit:10;}
	.st4{fill:#0061FF;stroke:#13263D;stroke-width:8;stroke-linecap:round;stroke-linejoin:round;stroke-miterlimit:10;}
	.st5{fill:#0061FF;}
</style>
<circle class="st0" cx="512" cy="512" r="375"/>
<path class="st1" d="M844.3,196.7c-47.6-1.4-97.9-0.4-152.5,3.6c-207.4,15-461.2,188.3-461.2,188.3s-36.9,2.6-120.6,14.7v353.7
	h808.6V201.2L844.3,196.7z"/>
<g>
	<line class="st2" x1="918.5" y1="756.9" x2="109.9" y2="756.9"/>
	<path class="st2" d="M109.9,403.3c83.8-12.1,120.6-14.7,120.6-14.7s253.8-173.3,461.2-188.3c54.6-4,104.9-5,152.5-3.6l74.2,4.6"/>
	<line class="st2" x1="918.5" y1="756.9" x2="201.6" y2="756.9"/>
</g>
<path class="st3" d="M378.9,397.4c-40.2,0.7-67,3-70.6,3c-6.4,0,19.9-18.2,57.6-40.6C359.2,374.4,366.5,392.5,378.9,397.4z"/>
<path class="st4" d="M876.7,237.9L847.6,382c-18.5,0.9-30.3,1.5-30.3,1.5c-83.4,6.7-235.4,11.2-351,13.9c2.2-1.6,3.9-4.4,5.1-7.8
	c0,0,0-0.1,0-0.1c4.3-12.1,2.8-32.3-4.8-38.2c-0.3-0.3-0.7-0.5-1-0.7c-13-7.3-19.8-6.9-68.7-6.9c-1.1,0-2.1,0-3.2,0.1
	c37.8-21.1,80.9-42.9,113.8-55c77.8-28.5,155.5-64.8,339.8-53.2C857.1,236.2,866.9,237,876.7,237.9z"/>
<path class="st3" d="M918.5,242.4l-9.9,44.8L890,379.8c-16,0.9-30.6,1.6-42.5,2.2l29.2-144.1c0.3,0,0.6,0,0.8,0.1L918.5,242.4z"/>
<path class="st2" d="M309.1,397.4c-0.1,0.1-0.2,0.2-0.3,0.2c-57.1,46.7-72.8,126.1-56.4,224.6c16.4,98.6,36.9,84.3,76.4,84.3
	c39.6,0,106.4,0,227.8,0s241.5,11.7,281.1-32.4c39.6-44.1,43.7-99.9,51.8-190.7c8.2-90.8,0-101.4,0-101.4l0.4-2.2"/>
<path class="st3" d="M470.9,390.7c-1,1.9-4.3,6.7-5.3,6.7c-6.2,0-80.9,0-80.9,0c-2,0-4,0.7-5.8,0c-12.5-4.9-19.7-23-13-37.6
	c3.9-8.5,12.6-15.2,27.8-16c1-0.1,2.1-0.1,3.2-0.1c48.8,0,55.7-0.4,68.6,6.9C476.5,356.8,475.8,380.9,470.9,390.7z"/>
<path class="st4" d="M109.9,532.9c1.1,0.4,2.1,0.8,3.2,1.2c81.1,32.5,120.5,124.7,88,205.9c-3.4,8.4-7.3,16.3-11.9,23.7
	c-5.9,9.7-12.8,18.5-20.4,26.5c-16.6,17.4-36.8,30.6-58.9,39"/>
<path class="st3" d="M108.8,605.2c33.9,24.8,48,70.2,31.7,111c-6.8,16.9-18,30.8-31.7,40.9"/>
<line class="st2" x1="761.9" y1="463.1" x2="827.6" y2="458.5"/>
<path class="st3" d="M773.3,591.3L773.3,591.3c0-25.2-20.5-45.7-45.7-45.7l0,0c25.2,0,45.7-20.5,45.7-45.7l0,0
	c0,25.2,20.5,45.7,45.7,45.7l0,0C793.7,545.5,773.3,566,773.3,591.3z"/>
<path class="st3" d="M807,244.7L807,244.7c0-26.9-21.8-48.6-48.6-48.6l0,0c26.9,0,48.6-21.8,48.6-48.6l0,0
	c0,26.9,21.8,48.6,48.6,48.6l0,0C828.7,196,807,217.8,807,244.7z"/>
<path class="st3" d="M376.8,643.6L376.8,643.6c0-15.3-12.4-27.8-27.8-27.8l0,0c15.3,0,27.8-12.4,27.8-27.8l0,0
	c0,15.3,12.4,27.8,27.8,27.8l0,0C389.2,615.8,376.8,628.2,376.8,643.6z"/>
<path class="st2" d="M665.1,454.9c18.7,16.8,32.6,38.7,39.6,63.4"/>
<path class="st2" d="M632,433c5.5,2.6,10.8,5.5,15.9,8.8"/>
<g>
	<g>
		<g>
			<circle class="st1" cx="577.1" cy="554.3" r="102.6"/>
			<circle class="st2" cx="577.1" cy="554.3" r="102.6"/>
		</g>
		<g>
			<circle class="st1" cx="577.1" cy="554.3" r="78.9"/>
			<circle class="st2" cx="577.1" cy="554.3" r="78.9"/>
		</g>
		<g>
			<path class="st1" d="M540.2,538.8v26.2h-62.2c-7.2,0-13.1-5.9-13.1-13.1l0,0c0-7.2,5.9-13.1,13.1-13.1H540.2z"/>
			<path class="st2" d="M540.2,538.8v26.2h-62.2c-7.2,0-13.1-5.9-13.1-13.1l0,0c0-7.2,5.9-13.1,13.1-13.1H540.2z"/>
		</g>
		<g>
			<path class="st1" d="M487.9,534.5v34.9h-57.9c-9.6,0-17.4-7.8-17.4-17.4l0,0c0-9.6,7.8-17.4,17.4-17.4H487.9z"/>
			<path class="st2" d="M487.9,534.5v34.9h-57.9c-9.6,0-17.4-7.8-17.4-17.4l0,0c0-9.6,7.8-17.4,17.4-17.4H487.9z"/>
		</g>
		<g>
			<circle class="st5" cx="577.1" cy="554.3" r="61.5"/>
			<circle class="st2" cx="577.1" cy="554.3" r="61.5"/>
		</g>
		<g>
			<path class="st5" d="M577.1,793.4c10.4,0,18.9-8.4,18.9-18.9V635.3c0-6.1-4.9-11-11-11h-15.7c-6.1,0-11,4.9-11,11v112.4v26.9
				C558.2,785,566.7,793.4,577.1,793.4z"/>
			<path class="st2" d="M577.1,793.4c10.4,0,18.9-8.4,18.9-18.9V635.3c0-6.1-4.9-11-11-11h-15.7c-6.1,0-11,4.9-11,11v112.4v26.9
				C558.2,785,566.7,793.4,577.1,793.4z"/>
		</g>
		<g>
			<path class="st5" d="M611,573.7v115.4c0,10.9-8.9,19.8-19.8,19.8h-28.3c-10.9,0-19.8-8.9-19.8-19.8V573.7c0-18.8,15.2-34,34-34h0
				C595.8,539.7,611,554.9,611,573.7z"/>
			<path class="st2" d="M611,573.7v115.4c0,10.9-8.9,19.8-19.8,19.8h-28.3c-10.9,0-19.8-8.9-19.8-19.8V573.7c0-18.8,15.2-34,34-34h0
				C595.8,539.7,611,554.9,611,573.7z"/>
		</g>
		<path class="st4" d="M577.1,794.2c0,0,0,82.2,0,126.9"/>
	</g>
</g>
<circle class="st3" cx="201.6" cy="328.6" r="123.1"/>
<path class="st4" d="M201.6,233.6c-22.3,48.1-56.7,75.9-56.7,120.4c0,31.3,25.4,56.7,56.7,56.7s56.7-25.4,56.7-56.7
	C258.3,309.6,223.8,281.7,201.6,233.6z"/>
<line class="st2" x1="288.6" y1="241.5" x2="114.6" y2="415.6"/>
<path class="st4" d="M202.6,383.6c17,0,30.8-13.8,30.8-30.8"/>
<path class="st2" d="M500.7,201.8c9.8-3.6,19.6-7,29.5-10.2"/>
<path class="st2" d="M349,273.1c32-17.9,72.4-38.8,116.1-57.2"/>
</svg>
